<?xml version="1.0" encoding="UTF-8"?>
<!DOCTYPE svg PUBLIC "-//W3C//DTD SVG 1.1//EN" "http://www.w3.org/Graphics/SVG/1.1/DTD/svg11.dtd">
<!-- Creator: CorelDRAW 2017 -->
<svg xmlns="http://www.w3.org/2000/svg" xml:space="preserve" width="195mm" height="325mm" version="1.1" style="shape-rendering:geometricPrecision; text-rendering:geometricPrecision; image-rendering:optimizeQuality; fill-rule:evenodd; clip-rule:evenodd"
viewBox="0 0 19500 32500"
 xmlns:xlink="http://www.w3.org/1999/xlink">
 <defs>
  <style type="text/css">
   <![CDATA[
    .str0 {stroke:#FEFEFE;stroke-width:10;stroke-miterlimit:22.9256}
    .fil1 {fill:#FEFEFE}
    .fil5 {fill:#2E2E2D}
    .fil6 {fill:#C42239}
    .fil0 {fill:#2A4071}
    .fil3 {fill:#FEFEFE;fill-rule:nonzero}
    .fil2 {fill:#C4C5C5;fill-rule:nonzero}
    .fil4 {fill:#2E2E2D;fill-rule:nonzero}
   ]]>
  </style>
 </defs>
 <g id="Camada_x0020_1">
  <metadata id="CorelCorpID_0Corel-Layer"/>
  <g id="_1107578096">
   <g>
    <polygon class="fil0" points="10586.04,15784.74 14164.54,9463.75 8082.76,9463.75 5335.46,14317.41 7930.91,15784.74 "/>
    <path class="fil1 str0" d="M6955.13 14110.92l-21.95 0 0 -156.18 -56.29 123.87 -18.76 0 -57.18 -123.87 0 156.18 -21.9 0 0 -205.54 21.9 0 66.94 145.71 65.29 -145.71 21.95 0 0 205.54zm227.16 0l-23.11 0 -16.75 -46.47 -90.05 0 -16.16 46.47 -23.4 0 75.64 -205.54 18.48 0 75.35 205.54zm-46.02 -65.52l-38.24 -108.35 -38.64 108.35 76.88 0zm223.53 -120.39l-59.48 0 0 185.91 -21.94 0 0 -185.91 -59.46 0 0 -19.63 140.88 0 0 19.63zm190.48 185.91l-127.61 0 0 -205.54 127.61 0 0 19.63 -105.67 0 0 72.47 90.09 0 0 19.63 -90.09 0 0 74.2 105.67 0 0 19.61zm213.87 0l-25.7 0 -46.76 -91.2 -49.37 0 0 91.2 -21.94 0 0 -205.54 78.82 0c17.91,0 32.53,5.1 43.89,15.3 11.34,10.2 17.03,24.15 17.03,41.86 0,14.23 -3.96,26.27 -11.84,36.08 -7.92,9.83 -18.85,16.17 -32.92,19.06l48.79 93.24zm-25.98 -148.1c0,-12.11 -3.75,-21.45 -11.26,-27.98 -7.51,-6.56 -17.42,-9.83 -29.73,-9.83l-54.86 0 0 75.34 54.86 0c12.52,0 22.47,-3.18 29.87,-9.51 7.42,-6.35 11.12,-15.69 11.12,-28.02zm118.04 148.1l-21.94 0 0 -205.54 21.94 0 0 205.54zm227.16 0l-23.12 0 -16.73 -46.47 -90.06 0 -16.18 46.47 -23.38 0 75.62 -205.54 18.49 0 75.36 205.54zm-46.06 -65.52l-38.19 -108.35 -38.64 108.35 76.83 0zm230.76 65.52l-127.01 0 0 -205.54 21.93 0 0 185.93 105.08 0 0 19.61zm337.43 -105.06c0,21.56 -0.7,36.74 -2.05,45.6 -6.16,39.67 -29.54,59.46 -70.15,59.46l-70.45 0 0 -205.54 70.45 0c19.23,0 34.97,4.9 47.2,14.73 12.2,9.79 19.84,23.95 22.95,42.43 1.35,8.08 2.03,22.52 2.05,43.32zm-21.97 0c0,-17.71 -0.49,-30.04 -1.45,-36.97 -4.05,-29.25 -21.56,-43.88 -52.54,-43.88l-44.75 0 0 166.3 44.75 0c17.32,0 30.8,-5.02 40.41,-15.02 6.17,-6.33 10.2,-16.73 12.13,-31.17 0.96,-7.32 1.45,-20.43 1.45,-39.26zm225.69 105.06l-127.57 0 0 -205.54 127.57 0 0 19.63 -105.66 0 0 72.47 90.09 0 0 19.63 -90.09 0 0 74.2 105.66 0 0 19.61zm342.04 -145.21c0,18.48 -5.95,33.21 -17.77,44.18 -11.83,10.97 -27.1,16.44 -45.74,16.44l-54.58 0 0 84.59 -21.93 0 0 -205.54 76.51 0c18.64,0 33.85,5.29 45.6,15.87 11.91,11.18 17.91,26 17.91,44.46zm-21.95 0c0,-13.25 -3.9,-23.36 -11.72,-30.3 -7.75,-6.92 -18.41,-10.4 -31.89,-10.4l-52.53 0 0 81.71 52.53 0c13.48,0 24.14,-3.51 31.89,-10.54 7.82,-7.02 11.72,-17.18 11.72,-30.47zm232.04 145.21l-25.68 0 -46.75 -91.2 -49.39 0 0 91.2 -21.93 0 0 -205.54 78.79 0c17.91,0 32.55,5.1 43.89,15.3 11.35,10.2 17.04,24.15 17.04,41.86 0,14.23 -3.95,26.27 -11.83,36.08 -7.9,9.83 -18.87,16.17 -32.92,19.06l48.78 93.24zm-25.97 -148.1c0,-12.11 -3.76,-21.45 -11.27,-27.98 -7.51,-6.56 -17.41,-9.83 -29.73,-9.83l-54.85 0 0 75.34 54.85 0c12.52,0 22.46,-3.18 29.88,-9.51 7.42,-6.35 11.12,-15.69 11.12,-28.02zm232.08 45.32c0,25.81 -0.78,42.75 -2.32,50.85 -2.32,12.48 -7.99,23.26 -17.05,32.32 -14.23,14.23 -31.73,21.36 -52.54,21.36 -20.78,0 -38.29,-7.13 -52.53,-21.36 -9.04,-9.06 -14.73,-19.84 -17.03,-32.32 -1.55,-8.1 -2.3,-25.04 -2.3,-50.85 0,-25.77 0.75,-42.71 2.3,-50.79 2.3,-12.52 7.99,-23.29 17.03,-32.34 14.24,-14.23 31.75,-21.36 52.53,-21.36 20.81,0 38.31,7.13 52.54,21.36 9.06,9.05 14.73,19.82 17.05,32.34 1.54,8.08 2.32,25.02 2.32,50.79zm-21.95 0c0,-22.88 -0.77,-38.27 -2.32,-46.19 -1.93,-9.61 -5.96,-17.59 -12.11,-23.96 -9.63,-9.8 -21.48,-14.69 -35.53,-14.69 -14.06,0 -25.88,4.89 -35.51,14.69 -6.16,6.37 -10.2,14.35 -12.11,23.96 -1.55,7.92 -2.3,23.31 -2.3,46.19 0,22.92 0.75,38.33 2.3,46.21 1.91,9.62 5.95,17.61 12.11,23.96 9.63,9.8 21.45,14.73 35.51,14.73 14.05,0 25.9,-4.93 35.53,-14.73 6.15,-6.35 10.18,-14.34 12.11,-23.96 1.55,-7.88 2.32,-23.29 2.32,-46.21zm217.93 -83.13l-59.48 0 0 185.91 -21.95 0 0 -185.91 -59.46 0 0 -19.63 140.89 0 0 19.63zm190.47 185.91l-127.59 0 0 -205.54 127.59 0 0 19.63 -105.65 0 0 72.47 90.08 0 0 19.63 -90.08 0 0 74.2 105.65 0 0 19.61zm205.53 -59.46c-3.29,18.68 -11.28,33.54 -23.98,44.62 -12.69,11.06 -28.5,16.59 -47.35,16.59 -20.77,0 -38.29,-7.13 -52.54,-21.36 -9.04,-9.06 -14.73,-19.84 -17.03,-32.32 -1.53,-8.1 -2.3,-25.04 -2.3,-50.85 0,-25.77 0.77,-42.71 2.3,-50.79 2.3,-12.52 7.99,-23.29 17.03,-32.34 14.25,-14.23 31.77,-21.36 52.54,-21.36 19.05,0 34.83,5.49 47.35,16.46 12.51,10.97 20.48,25.9 23.98,44.73l-22.55 0c-2.69,-12.7 -8.3,-22.79 -16.88,-30.3 -8.56,-7.53 -19.18,-11.24 -31.9,-11.24 -14.23,0 -26.07,4.78 -35.51,14.43 -6.17,6.33 -10.2,14.32 -12.11,23.95 -1.53,8.08 -2.31,23.58 -2.31,46.46 0,22.92 0.78,38.42 2.31,46.5 1.91,9.61 5.94,17.6 12.11,23.97 9.44,9.59 21.28,14.43 35.51,14.43 12.72,0 23.43,-3.75 32.2,-11.28 8.74,-7.48 14.46,-17.6 17.15,-30.3l21.98 0zm208.37 0c-3.26,18.68 -11.27,33.54 -23.95,44.62 -12.68,11.06 -28.48,16.59 -47.35,16.59 -20.8,0 -38.31,-7.13 -52.54,-21.36 -9.05,-9.06 -14.72,-19.84 -17.04,-32.32 -1.55,-8.1 -2.32,-25.04 -2.32,-50.85 0,-25.77 0.77,-42.71 2.32,-50.79 2.32,-12.52 7.99,-23.29 17.04,-32.34 14.23,-14.23 31.74,-21.36 52.54,-21.36 19.06,0 34.83,5.49 47.35,16.46 12.52,10.97 20.51,25.9 23.95,44.73l-22.51 0c-2.71,-12.7 -8.32,-22.79 -16.88,-30.3 -8.56,-7.53 -19.22,-11.24 -31.91,-11.24 -14.25,0 -26.06,4.78 -35.53,14.43 -6.14,6.33 -10.19,14.32 -12.11,23.95 -1.54,8.08 -2.32,23.58 -2.32,46.46 0,22.92 0.78,38.42 2.32,46.5 1.92,9.61 5.97,17.6 12.11,23.97 9.47,9.59 21.28,14.43 35.53,14.43 12.69,0 23.44,-3.75 32.2,-11.28 8.76,-7.48 14.49,-17.6 17.16,-30.3l21.94 0zm-58.26 78.82l-17.03 43.01 -22.79 0 20.47 -43.01 19.35 0zm274.47 -19.36l-23.12 0 -16.74 -46.47 -90.07 0 -16.16 46.47 -23.38 0 75.64 -205.54 18.46 0 75.37 205.54zm-46.06 -65.52l-38.22 -108.35 -38.64 108.35 76.86 0zm5.67 -178.71c-9.79,9.83 -18.96,14.73 -27.41,14.73 -5.39,0 -12.04,-2.12 -19.94,-6.34 -7.88,-4.27 -13.45,-6.35 -16.73,-6.35 -5.21,0 -10.88,3.06 -17.05,9.23l-10.67 -10.41c9.83,-9.79 18.96,-14.72 27.44,-14.72 5.38,0 11.88,2.11 19.48,6.37 7.58,4.23 13.31,6.35 17.18,6.35 5.19,0 10.86,-3.09 17.02,-9.26l10.68 10.4zm234.03 141.45c0,25.81 -0.76,42.75 -2.28,50.85 -2.32,12.48 -7.99,23.26 -17.05,32.32 -14.25,14.23 -31.75,21.36 -52.54,21.36 -20.8,0 -38.31,-7.13 -52.54,-21.36 -9.05,-9.06 -14.72,-19.84 -17.04,-32.32 -1.51,-8.1 -2.29,-25.04 -2.29,-50.85 0.02,-25.77 0.78,-42.71 2.29,-50.79 2.32,-12.52 7.99,-23.29 17.04,-32.34 14.23,-14.23 31.74,-21.36 52.54,-21.36 20.79,0 38.29,7.13 52.54,21.36 9.06,9.05 14.73,19.82 17.05,32.34 1.52,8.08 2.28,25.02 2.28,50.79zm-21.94 0c0,-22.88 -0.76,-38.27 -2.29,-46.19 -1.93,-9.61 -5.96,-17.59 -12.13,-23.96 -9.63,-9.8 -21.44,-14.69 -35.51,-14.69 -14.06,0 -25.86,4.89 -35.53,14.69 -6.14,6.37 -10.19,14.35 -12.11,23.96 -1.55,7.92 -2.28,23.31 -2.28,46.19 0,22.92 0.73,38.33 2.28,46.21 1.92,9.62 5.97,17.61 12.11,23.96 9.67,9.8 21.47,14.73 35.53,14.73 14.07,0 25.88,-4.93 35.51,-14.73 6.17,-6.35 10.2,-14.34 12.13,-23.96 1.53,-7.88 2.29,-23.29 2.29,-46.21zm357.6 102.78l-127.59 0 0 -205.54 127.59 0 0 19.63 -105.64 0 0 72.47 90.07 0 0 19.63 -90.07 0 0 74.2 105.64 0 0 19.61z"/>
    <path class="fil1 str0" d="M6896.62 14404.09c0,19.26 -7.21,34.06 -21.65,44.46 -12.92,9.26 -29.36,13.88 -49.37,13.88 -28.88,0 -52.35,-9.06 -70.45,-27.17l15.01 -15c15.02,15 33.68,22.53 55.99,22.53 13.68,0 24.84,-2.89 33.53,-8.67 9.99,-6.54 15,-16.35 15,-29.48 0,-11.57 -3.37,-20.13 -10.11,-25.69 -5.39,-4.64 -14.23,-7.92 -26.58,-9.83l-23.95 -3.72c-35.6,-5.56 -53.42,-23.55 -53.42,-53.98 0,-18.66 6.44,-33.19 19.37,-43.59 11.91,-9.61 27.41,-14.43 46.46,-14.43 24.06,0 44.46,7.51 61.21,22.51l-14.14 14.14c-12.89,-11.73 -28.88,-17.6 -47.92,-17.6 -12.7,0 -22.9,3.19 -30.61,9.54 -8.47,6.74 -12.69,16.25 -12.69,28.59 0,19.42 12.32,31.07 36.93,34.92l22.53 3.46c36.56,5.58 54.86,23.97 54.86,55.13zm173.45 56.61l-127.57 0 0 -205.59 127.57 0 0 19.66 -105.67 0 0 72.46 90.1 0 0 19.64 -90.1 0 0 74.19 105.67 0 0 19.64zm182.19 -75.09c0,22.73 -5.87,40.43 -17.62,53.15 -14.63,15.75 -32.91,23.67 -54.86,23.67 -20.78,0 -38.29,-7.14 -52.53,-21.37 -9.04,-9.06 -14.75,-19.83 -17.05,-32.35 -1.53,-8.08 -2.3,-25.01 -2.3,-50.79 0,-25.81 0.77,-42.74 2.3,-50.82 2.3,-12.52 8.06,-23.29 17.14,-32.33 14.28,-14.25 31.84,-21.37 52.74,-21.37 19.16,0 35.16,5.52 48.12,16.6 12.94,11.07 20.97,26.05 24.06,44.88l-22.05 0c-2.89,-12.88 -8.6,-22.99 -17.12,-30.3 -9.1,-7.69 -20.13,-11.56 -33.07,-11.56 -14.1,0 -26.01,4.92 -35.69,14.75 -6.17,6.33 -10.25,14.32 -12.19,23.95 -1.54,7.88 -2.3,23.28 -2.3,46.2 0,22.89 0.76,38.39 2.3,46.47 1.94,9.62 5.97,17.61 12.13,23.97 9.45,9.62 21.25,14.43 35.51,14.43 15.96,0 28.48,-5.29 37.54,-15.89 8.67,-10 13,-22.97 13,-38.95l0 -15.59 -50.54 0 0 -19.35 72.48 0 0 32.6zm191.69 7.23c0,20.59 -6.78,37.36 -20.36,50.24 -13.55,12.89 -30.74,19.35 -51.53,19.35 -20.8,0 -37.9,-6.46 -51.39,-19.35 -13.48,-12.88 -20.2,-29.65 -20.2,-50.24l0 -137.73 21.94 0 0 136c0,15.39 4.48,27.86 13.41,37.39 8.96,9.52 21.02,14.29 36.24,14.29 15.41,0 27.58,-4.77 36.53,-14.29 8.92,-9.53 13.41,-22 13.41,-37.39l0 -136 21.95 0 0 137.73zm200.36 67.86l-25.7 0 -46.76 -91.23 -49.39 0 0 91.23 -21.92 0 0 -205.59 78.82 0c17.88,0 32.51,5.14 43.89,15.34 11.34,10.18 17.01,24.13 17.01,41.84 0,14.25 -3.92,26.27 -11.84,36.1 -7.9,9.81 -18.87,16.14 -32.9,19.03l48.79 93.28zm-26 -148.12c0,-12.11 -3.75,-21.46 -11.24,-28 -7.51,-6.55 -17.44,-9.81 -29.73,-9.81l-54.88 0 0 75.33 54.88 0c12.5,0 22.44,-3.15 29.86,-9.52 7.41,-6.35 11.11,-15.68 11.11,-28zm214.81 148.12l-23.12 0 -16.73 -46.5 -90.07 0 -16.17 46.5 -23.39 0 75.66 -205.59 18.46 0 75.36 205.59zm-46.04 -65.54l-38.23 -108.37 -38.64 108.37 76.87 0zm231.09 65.54l-20.75 0 -109.14 -164.85 0 164.85 -21.95 0 0 -205.59 20.77 0 109.13 164.28 0 -164.28 21.94 0 0 205.59zm194.87 -59.5c-3.26,18.69 -11.26,33.54 -23.97,44.61 -12.68,11.08 -28.47,16.62 -47.34,16.62 -20.79,0 -38.31,-7.14 -52.54,-21.37 -9.06,-9.06 -14.73,-19.83 -17.05,-32.35 -1.51,-8.08 -2.3,-25.01 -2.3,-50.79 0,-25.81 0.79,-42.74 2.3,-50.82 2.32,-12.52 7.99,-23.29 17.05,-32.33 14.23,-14.25 31.75,-21.37 52.54,-21.37 19.07,0 34.83,5.49 47.34,16.46 12.52,10.97 20.51,25.88 23.97,44.75l-22.51 0c-2.69,-12.72 -8.34,-22.83 -16.9,-30.34 -8.56,-7.47 -19.18,-11.25 -31.9,-11.25 -14.25,0 -26.07,4.81 -35.51,14.44 -6.15,6.35 -10.22,14.34 -12.13,23.96 -1.53,8.08 -2.31,23.58 -2.31,46.5 0,22.89 0.78,38.39 2.31,46.47 1.91,9.62 5.98,17.61 12.13,23.97 9.46,9.62 21.26,14.43 35.51,14.43 12.72,0 23.45,-3.78 32.19,-11.25 8.77,-7.51 14.49,-17.62 17.18,-30.34l21.94 0zm-58.26 78.85l-17.05 42.98 -22.79 0 20.47 -42.98 19.37 0zm249.97 -19.35l-23.1 0 -16.75 -46.5 -90.06 0 -16.2 46.5 -23.36 0 75.62 -205.59 18.5 0 75.35 205.59zm-46.04 -65.54l-38.22 -108.37 -38.64 108.37 76.86 0zm286.51 6.04c-3.26,18.69 -11.26,33.54 -23.95,44.61 -12.68,11.08 -28.49,16.62 -47.34,16.62 -20.81,0 -38.31,-7.14 -52.54,-21.37 -9.06,-9.06 -14.73,-19.83 -17.05,-32.35 -1.51,-8.08 -2.32,-25.01 -2.32,-50.79 0,-25.81 0.81,-42.74 2.32,-50.82 2.32,-12.52 7.99,-23.29 17.05,-32.33 14.23,-14.25 31.73,-21.37 52.54,-21.37 19.05,0 34.82,5.49 47.34,16.46 12.52,10.97 20.49,25.88 23.95,44.75l-22.51 0c-2.69,-12.72 -8.34,-22.83 -16.88,-30.34 -8.56,-7.47 -19.18,-11.25 -31.9,-11.25 -14.25,0 -26.07,4.81 -35.53,14.44 -6.15,6.35 -10.2,14.34 -12.12,23.96 -1.54,8.08 -2.28,23.58 -2.28,46.5 0,22.89 0.74,38.39 2.28,46.47 1.92,9.62 5.97,17.61 12.12,23.97 9.46,9.62 21.28,14.43 35.53,14.43 12.72,0 23.43,-3.78 32.19,-11.25 8.78,-7.51 14.47,-17.62 17.16,-30.34l21.94 0zm184.47 -43.28c0,25.78 -0.77,42.71 -2.28,50.79 -2.32,12.52 -7.99,23.29 -17.04,32.35 -14.25,14.23 -31.78,21.37 -52.54,21.37 -20.8,0 -38.31,-7.14 -52.54,-21.37 -9.06,-9.06 -14.73,-19.83 -17.05,-32.35 -1.51,-8.08 -2.28,-25.01 -2.28,-50.79 0,-25.81 0.77,-42.74 2.28,-50.82 2.32,-12.52 7.99,-23.29 17.05,-32.33 14.23,-14.25 31.74,-21.37 52.54,-21.37 20.76,0 38.29,7.12 52.54,21.37 9.05,9.04 14.72,19.81 17.04,32.33 1.51,8.08 2.28,25.01 2.28,50.82zm-21.94 0c0,-22.92 -0.75,-38.32 -2.28,-46.2 -1.93,-9.63 -5.97,-17.62 -12.13,-23.95 -9.63,-9.83 -21.49,-14.75 -35.51,-14.75 -14.07,0 -25.89,4.92 -35.53,14.75 -6.15,6.33 -10.2,14.32 -12.11,23.95 -1.55,7.88 -2.29,23.28 -2.29,46.2 0,22.89 0.74,38.29 2.29,46.17 1.91,9.63 5.96,17.62 12.11,23.95 9.64,9.83 21.46,14.75 35.53,14.75 14.02,0 25.88,-4.92 35.51,-14.75 6.16,-6.33 10.2,-14.32 12.13,-23.95 1.53,-7.88 2.28,-23.28 2.28,-46.17zm225.49 102.78l-20.73 0 -109.2 -164.85 0 164.85 -21.91 0 0 -205.59 20.77 0 109.14 164.28 0 -164.28 21.93 0 0 205.59zm179.3 -185.93l-59.5 0 0 185.93 -21.9 0 0 -185.93 -59.5 0 0 -19.66 140.9 0 0 19.66zm182.15 185.93l-25.7 0 -46.77 -91.23 -49.36 0 0 91.23 -21.94 0 0 -205.59 78.81 0c17.91,0 32.54,5.14 43.88,15.34 11.36,10.18 17.05,24.13 17.05,41.84 0,14.25 -3.96,26.27 -11.84,36.1 -7.91,9.81 -18.86,16.14 -32.91,19.03l48.78 93.28zm-25.97 -148.12c0,-12.11 -3.76,-21.46 -11.27,-28 -7.51,-6.55 -17.41,-9.81 -29.73,-9.81l-54.86 0 0 75.33 54.86 0c12.52,0 22.46,-3.15 29.88,-9.52 7.42,-6.35 11.12,-15.68 11.12,-28zm214.77 148.12l-23.08 0 -16.74 -46.5 -90.09 0 -16.16 46.5 -23.36 0 75.62 -205.59 18.46 0 75.35 205.59zm-46.04 -65.54l-38.2 -108.37 -38.64 108.37 76.84 0zm173.08 65.54l-21.93 0 0 -205.59 21.93 0 0 205.59zm211.35 0l-20.77 0 -109.16 -164.85 0 164.85 -21.94 0 0 -205.59 20.8 0 109.13 164.28 0 -164.28 21.94 0 0 205.59zm194.87 -59.5c-3.29,18.69 -11.28,33.54 -23.97,44.61 -12.72,11.08 -28.47,16.62 -47.36,16.62 -20.78,0 -38.29,-7.14 -52.54,-21.37 -9.04,-9.06 -14.73,-19.83 -17.03,-32.35 -1.54,-8.08 -2.3,-25.01 -2.3,-50.79 0.02,-25.81 0.76,-42.74 2.3,-50.82 2.3,-12.52 7.99,-23.29 17.03,-32.33 14.25,-14.25 31.76,-21.37 52.54,-21.37 19.05,0 34.85,5.49 47.36,16.46 12.5,10.97 20.48,25.88 23.97,44.75l-22.55 0c-2.69,-12.72 -8.3,-22.83 -16.86,-30.34 -8.56,-7.47 -19.22,-11.25 -31.92,-11.25 -14.23,0 -26.07,4.81 -35.51,14.44 -6.13,6.35 -10.2,14.34 -12.11,23.96 -1.55,8.08 -2.3,23.58 -2.3,46.5 0,22.89 0.75,38.39 2.3,46.47 1.91,9.62 5.98,17.61 12.11,23.97 9.44,9.62 21.28,14.43 35.51,14.43 12.7,0 23.45,-3.78 32.2,-11.25 8.78,-7.51 14.47,-17.62 17.19,-30.34l21.94 0zm176.08 59.5l-127.57 0 0 -205.59 127.57 0 0 19.66 -105.65 0 0 72.46 90.08 0 0 19.64 -90.08 0 0 74.19 105.65 0 0 19.64zm-21.08 -225.49l-19.9 0 -25.99 -30.02 -25.97 30.02 -19.92 0 36.1 -44.16 19.62 0 36.06 44.16zm218.57 225.49l-20.73 0 -109.18 -164.85 0 164.85 -21.94 0 0 -205.59 20.8 0 109.11 164.28 0 -164.28 21.94 0 0 205.59zm202.09 -105.1c0,21.54 -0.68,36.75 -2.01,45.6 -6.18,39.65 -29.56,59.5 -70.17,59.5l-70.43 0 0 -205.59 70.43 0c19.24,0 34.99,4.93 47.2,14.75 12.24,9.81 19.88,23.95 22.97,42.43 1.33,8.08 2.01,22.51 2.01,43.31zm-21.94 0c0,-17.7 -0.48,-30.02 -1.44,-36.96 -4.03,-29.23 -21.56,-43.87 -52.56,-43.87l-44.75 0 0 166.29 44.75 0c17.33,0 30.8,-4.99 40.43,-15.02 6.15,-6.36 10.22,-16.76 12.13,-31.17 0.96,-7.33 1.44,-20.42 1.44,-39.27zm95.56 105.1l-21.95 0 0 -205.59 21.95 0 0 205.59zm195.44 -102.78c0,25.78 -0.77,42.71 -2.28,50.79 -2.32,12.52 -7.99,23.29 -17.05,32.35 -14.25,14.23 -31.77,21.37 -52.54,21.37 -20.8,0 -38.32,-7.14 -52.55,-21.37 -9.06,-9.06 -14.73,-19.83 -17.03,-32.35 -1.53,-8.08 -2.3,-25.01 -2.3,-50.79 0,-25.81 0.77,-42.74 2.3,-50.82 2.3,-12.52 7.97,-23.29 17.03,-32.33 14.23,-14.25 31.75,-21.37 52.55,-21.37 20.77,0 38.29,7.12 52.54,21.37 9.06,9.04 14.73,19.81 17.05,32.33 1.51,8.08 2.28,25.01 2.28,50.82zm-21.94 0c0,-22.92 -0.78,-38.32 -2.29,-46.2 -1.95,-9.63 -5.98,-17.62 -12.15,-23.95 -9.62,-9.83 -21.46,-14.75 -35.49,-14.75 -14.06,0 -25.88,4.92 -35.53,14.75 -6.14,6.33 -10.19,14.32 -12.11,23.95 -1.55,7.88 -2.3,23.28 -2.3,46.2 0,22.89 0.75,38.29 2.3,46.17 1.92,9.63 5.97,17.62 12.11,23.95 9.65,9.83 21.47,14.75 35.53,14.75 14.03,0 25.87,-4.92 35.49,-14.75 6.17,-6.33 10.2,-14.32 12.15,-23.95 1.51,-7.88 2.29,-23.28 2.29,-46.17zm197.54 46.17c0,19.26 -7.22,34.06 -21.65,44.46 -12.92,9.26 -29.36,13.88 -49.39,13.88 -28.85,0 -52.33,-9.06 -70.43,-27.17l15 -15c15.02,15 33.69,22.53 56,22.53 13.66,0 24.83,-2.89 33.52,-8.67 10,-6.54 15.01,-16.35 15.01,-29.48 0,-11.57 -3.37,-20.13 -10.11,-25.69 -5.39,-4.64 -14.23,-7.92 -26.56,-9.83l-23.97 -3.72c-35.6,-5.56 -53.4,-23.55 -53.4,-53.98 0,-18.66 6.44,-33.19 19.32,-43.59 11.93,-9.61 27.43,-14.43 46.5,-14.43 24.05,0 44.46,7.51 61.19,22.51l-14.13 14.14c-12.91,-11.73 -28.89,-17.6 -47.94,-17.6 -12.68,0 -22.88,3.19 -30.59,9.54 -8.47,6.74 -12.69,16.25 -12.69,28.59 0,19.42 12.28,31.07 36.95,34.92l22.51 3.46c36.56,5.58 54.86,23.97 54.86,55.13z"/>
    <g>
     <path class="fil2" d="M12422.38 12370.66c7.36,31.86 9.06,55.92 1.4,84.47l-151.82 565.59c-108.96,406 -533.77,662.86 -940.4,662.86l-1381.18 0c-228.53,0 -442.84,-78.39 -600.38,-246.9 -185.71,155.79 -425.91,246.9 -668.79,246.9l-1779.34 0c-296.09,0 -512.04,-258.27 -435.42,-545.58l420.88 -1578.26c-114.19,-133.02 -150.09,-316.56 -66.29,-474.87 74.2,-140.22 231.67,-220.32 387.76,-220.32l2007.46 0c225.28,0 448.43,84.26 601.81,250.8 189.76,-161.55 421.06,-250.8 671.53,-250.8l1381.16 0c476.25,0 876.94,371.75 746.51,864.97l-132.74 501.88c-13.52,51.12 -32.92,94.63 -62.15,139.26z"/>
     <path class="fil3" d="M12297.7 12190.84c-15.98,51.77 -42.86,94.4 -80.63,127.79 17.15,45.31 21.61,93.45 9.16,139.69l-138.19 513.25c-85.93,319.22 -436.3,520.85 -756.48,520.85l-1381.18 0c-247.09,0 -511.36,-129.19 -566.99,-390.55 -130.09,243.45 -432.49,390.55 -702.18,390.55l-1779.34 0c-167.56,0 -295.18,-140.16 -250.98,-305.87l448.41 -1681.5c-64.61,-61.16 -132.1,-128.79 -132.1,-224.33 0,-139.17 114.45,-225.16 243.62,-225.16l2007.46 0c246.48,0 510.92,136.96 565.2,395.71 134.37,-246.78 431.61,-395.56 706.12,-395.56l1381.16 0c344.69,0 660.8,248.63 563.68,617.3l-136.74 517.83z"/>
     <path class="fil0" d="M7312.49 11496.39l-464.54 1742.01c-9.43,35.4 12.68,49.76 53.92,49.76l1779.34 0c223.22,0 494.16,-138.28 555.78,-369.11l344.27 -1289.93c62.65,-234.71 -147.89,-369.15 -365,-369.15l-2007.46 0c-24.89,0 -37.34,6.9 -37.34,20.75 0,8.28 23.53,34.55 70.51,78.79 46.87,44.12 85.19,81.8 70.52,136.88zm999.59 -49.79l331.8 0c29.58,0 59.07,14.6 49.79,49.79l-410.62 1555.35c-9.57,36.34 -37.39,53.94 -78.83,53.94l-331.77 0c-43.36,0 -63.92,-16.53 -53.94,-53.94l414.75 -1555.35c8.81,-33.06 34.57,-49.79 78.82,-49.79z"/>
     <path class="fil0" d="M12024.2 12184.89c41.51,0 69.22,-17.56 78.83,-53.9l132.74 -501.87c62.13,-234.88 -147.77,-369.15 -365.01,-369.15l-1381.16 0c-225.45,0 -499.09,138.34 -559.93,369.15l-340.12 1289.93c-63.07,239.29 143.49,369.11 360.83,369.11l1381.18 0c227.79,0 496.5,-135.87 559.95,-369.11 91.07,-334.63 136.85,-504.64 136.85,-510.2 0,-27.63 -18,-41.47 -53.92,-41.47l-792.2 0c-44.19,0 -69.23,18.35 -78.82,53.94l-170.04 630.42c-9.59,35.6 -34.57,53.94 -78.79,53.94l-327.67 0c-29.53,0 -63.83,-19.44 -54.6,-53.94l415.44 -1555.35c8.84,-33.06 34.57,-49.79 78.81,-49.79l331.81 0c33.18,0 55.97,13.29 49.78,37.35l-170.08 659.47c-6.88,26.73 17.99,41.47 53.94,41.47l792.18 0z"/>
    </g>
   </g>
   <g>
    <path class="fil4" d="M8059.96 22210.96l-74.48 62.49c0.34,-15.58 -1.25,-29.39 -4.54,-41.35 -3.38,-12.03 -8.85,-22.46 -16.24,-31.26 -10.2,-12.16 -21.35,-18.97 -33.56,-20.58 -12.22,-1.62 -23.89,2.18 -34.89,11.4 -13.58,11.41 -20.46,33.19 -20.48,65.37 -0.01,9.02 -0.14,15.83 -0.4,20.48 -1.34,38.43 -6.28,68.32 -15.08,89.7 -8.77,21.23 -23.02,40.19 -42.9,56.87 -30.95,25.97 -63.27,38.23 -97.03,36.83 -33.69,-1.49 -62.38,-16.27 -86.04,-44.46 -8.37,-9.98 -15.18,-20.99 -20.5,-33.12 -5.38,-12.2 -9.44,-26.22 -12.48,-42.12l63.33 -53.14c4.52,17.64 8.55,30.98 12.14,39.85 3.57,8.86 7.61,16.05 12.11,21.42 8.66,10.32 19.04,16.04 31,17.16 11.94,1.13 23.16,-2.71 33.64,-11.51 9.14,-7.67 15.66,-17.28 19.48,-28.92 3.81,-11.63 5.98,-32.89 6.37,-63.95 0.52,-41.46 4.61,-71.33 12.51,-89.69 7.98,-18.42 21.54,-35.66 40.91,-51.92 32.64,-27.37 66.13,-39.75 100.57,-37.21 34.3,2.53 64.89,19.75 91.57,51.53 10.13,12.08 18.13,24.52 23.95,37.08 5.82,12.55 9.42,25.54 11.04,39.05zm-184.48 -262.09l-409.61 227.05 -95.51 -172.29 75.75 -41.99 51.66 93.19 82.75 -45.87 -46.83 -84.46 75.18 -41.68 46.82 84.47 95.97 -53.19 -51.66 -93.19 79.97 -44.33 95.51 172.29zm-434.58 -260.94c-0.4,-1.03 -0.92,-2.69 -1.58,-5.03 -0.7,-2.42 -1.23,-4.1 -1.62,-5.12 -7.26,-18.91 -18.07,-31.18 -32.24,-36.65 -14.32,-5.52 -31.71,-4.37 -52.36,3.56 -20.95,8.05 -34.5,18.29 -40.74,30.77 -6.23,12.47 -5.66,28.33 1.8,47.75 1.14,2.97 2.14,5.28 2.83,6.77 0.72,1.59 1.39,2.99 2.13,4.34l121.78 -46.39zm280 -10.6l-437.23 167.83 -34.84 -90.78c-19.15,-49.88 -23.23,-89.83 -12.3,-119.72 10.99,-30.02 37.85,-53.24 80.8,-69.72 31.18,-11.97 58.42,-15.86 81.62,-11.62 23.35,4.28 43.17,16.49 59.64,36.8l167.23 -160.49 35.32 92.01 -153.49 140.67 180.84 -69.42 32.41 84.44zm-136.35 -418.99l-430.34 227.95 -19.67 -92.54 195.88 -98.06c19.23,-9.57 39.91,-18.67 62.17,-27.21 22.25,-8.53 45.73,-16.55 70.58,-23.95 -23.67,3.45 -47.33,5.91 -70.65,7.28 -23.44,1.41 -46.55,1.73 -69.2,1.06l-220.48 -8.22 -20.21 -95.11 485.64 32.23 16.28 76.57zm-45.05 -290.2l-467.19 32.67 -6.65 -95.03 467.2 -32.67 6.64 95.03zm3.28 -466.51c2.93,9.27 4.86,18.56 5.82,27.76 1.06,9.23 1.14,18.36 0.34,27.52 -5.2,59.44 -31.03,105.88 -77.6,139.29 -46.45,33.43 -104.79,47 -174.83,40.88 -72.86,-6.38 -130.18,-29.75 -171.72,-69.99 -41.55,-40.23 -59.76,-89.64 -54.63,-148.22 0.95,-10.8 2.7,-20.98 5.41,-30.42 2.69,-9.44 6.21,-18.35 10.91,-26.74l87.26 7.64c-4.38,8.62 -7.87,17.12 -10.24,25.37 -2.48,8.24 -4.08,16.45 -4.78,24.53 -2.72,31.09 8.81,57.6 34.61,79.31 25.79,21.82 61.37,34.72 106.76,38.69 43.74,3.83 79.94,-3.01 108.75,-20.61 28.79,-17.59 44.56,-42.03 47.3,-73.34 0.69,-7.86 0.41,-16.02 -0.72,-24.36 -1.25,-8.35 -3.36,-16.89 -6.23,-25.49l93.59 8.18zm131.63 166.39l-41.23 -3.6c5.66,-13.26 10.16,-25.6 13.56,-36.96 3.32,-11.47 5.37,-21.19 6.08,-29.25 0.81,-9.17 -0.55,-16.21 -4.09,-21.14 -3.52,-4.92 -9.21,-7.73 -16.85,-8.4 -7.86,-0.68 -13.76,1.55 -17.85,6.79 -3.97,5.26 -6.48,13.83 -7.53,25.73 -0.29,3.38 -0.52,6.1 -0.61,8.19 -0.06,1.97 0,3.84 0.07,5.61l-67.42 -5.9 2.68 -30.65 28.69 2.5 0.33 -3.81c1.85,-21.05 8.37,-36.53 19.56,-46.32 11.07,-9.7 26.81,-13.7 47.1,-11.93 21.27,1.86 36.77,9.37 46.29,22.4 9.63,13.05 13.39,31.62 11.28,55.73 -0.8,9.16 -2.93,19.75 -6.29,31.77 -3.48,12.12 -8.03,25.13 -13.77,39.24zm-155.66 -445.14c6.62,-23.06 -0.47,-43.66 -21.31,-61.94 -20.82,-18.37 -55.3,-34.41 -103.72,-48.3 -48.72,-13.97 -86.67,-18.7 -114.06,-14.14 -27.37,4.46 -44.28,18.17 -50.89,41.23 -6.62,23.05 0.46,43.65 21.13,61.76 20.77,18.14 55.55,34.26 104.5,48.3 48.84,14.01 86.69,18.71 113.8,14.29 27.13,-4.41 43.94,-18.15 50.55,-41.2zm-93.07 -198.24c68.63,19.68 119.02,49.73 151.2,90.06 32.16,40.43 41.35,84.64 27.56,132.74 -14.28,49.79 -45.7,82.7 -94.27,98.74 -48.5,16.16 -109.01,13.84 -181.42,-6.92 -72.11,-20.68 -124.72,-50.91 -157.6,-90.75 -33,-39.88 -42.47,-84.28 -28.38,-133.45 14.16,-49.37 46.21,-82.09 96.29,-98.25 49.96,-16.09 112.21,-13.51 186.62,7.83zm483.78 -453.96c-1.77,9.55 -4.43,18.67 -7.9,27.24 -3.4,8.64 -7.61,16.74 -12.61,24.45 -32.51,50.05 -77.11,78.93 -133.91,86.57 -56.71,7.7 -114.6,-7.7 -173.56,-46 -61.34,-39.83 -100.97,-87.38 -118.77,-142.4 -17.79,-55.04 -10.67,-107.21 21.35,-156.52 5.91,-9.1 12.24,-17.26 19.05,-24.33 6.81,-7.06 14.11,-13.28 22.19,-18.48l73.47 47.71c-7.92,5.56 -14.98,11.42 -20.95,17.59 -6.06,6.12 -11.33,12.61 -15.75,19.41 -16.99,26.18 -19.25,55 -6.66,86.29 12.52,31.37 37.88,59.46 76.09,84.27 36.83,23.91 72,34.88 105.7,32.86 33.68,-2.01 59.08,-16.19 76.19,-42.55 4.3,-6.61 7.89,-13.95 10.81,-21.85 2.81,-7.96 4.96,-16.48 6.46,-25.43l78.8 51.17zm72.11 -87.72l-353.47 -307.26 129.25 -148.67 65.36 56.82 -69.9 80.42 71.4 62.06 63.36 -72.89 64.88 56.4 -63.37 72.89 82.81 71.98 69.9 -80.41 69.01 59.98 -129.23 148.68zm111.54 -493.69c0.85,-0.71 2.25,-1.75 4.24,-3.13 2.07,-1.45 3.48,-2.49 4.32,-3.2 15.52,-13.02 23.6,-27.23 24.16,-42.42 0.56,-15.33 -6.2,-31.4 -20.42,-48.34 -14.42,-17.19 -28.52,-26.67 -42.35,-28.51 -13.83,-1.82 -28.63,3.88 -44.56,17.25 -2.44,2.05 -4.3,3.74 -5.49,4.88 -1.27,1.2 -2.37,2.29 -3.41,3.43l83.51 100.04zm101.19 261.3l-301.04 -358.77 74.49 -62.5c40.93,-34.34 77.38,-51.21 109.2,-50.6 31.96,0.62 62.66,18.46 92.22,53.69 21.47,25.58 34.02,50.08 37.57,73.4 3.55,23.46 -1.55,46.18 -15.38,68.36l206.19 105.87 -75.5 63.35 -182.98 -99.33 124.52 148.39 -69.29 58.14zm318.77 -245.41l-185.07 -333.86 -62.54 34.66 -41.99 -75.75 207.25 -114.88 41.99 75.75 -62.53 34.67 185.05 333.86 -82.16 45.55zm236.42 -121.93l-190.49 -427.85 87.03 -38.75 190.49 427.84 -87.03 38.76zm209.74 -84.97l-121.21 -452.38 195.25 -52.32 22.41 83.67 -107.88 28.9 25.14 93.82 98.57 -26.41 22.34 83.34 -98.59 26.42 51.33 191.55 -87.36 23.41zm308.19 -74.26l-57.08 -464.84 94.56 -11.61 57.08 464.85 -94.56 11.6zm461.68 -37.87c-8.9,3.88 -17.95,6.77 -27,8.68 -9.05,2.03 -18.14,3.06 -27.32,3.22 -59.67,1.04 -108.55,-19.79 -146.65,-62.61 -38.09,-42.7 -57.7,-99.31 -58.92,-169.6 -1.28,-73.13 15.98,-132.57 51.65,-178.1 35.68,-45.53 82.91,-68.79 141.7,-69.82 10.84,-0.19 21.14,0.5 30.82,2.19 9.66,1.69 18.9,4.27 27.73,8.06l1.53 87.59c-9.04,-3.46 -17.84,-6.04 -26.3,-7.53 -8.47,-1.61 -16.8,-2.35 -24.9,-2.2 -31.21,0.54 -56.36,14.78 -75.26,42.72 -19.01,27.92 -28.11,64.66 -27.32,110.21 0.77,43.9 11.34,79.19 31.86,106 20.5,26.8 46.46,39.93 77.89,39.38 7.89,-0.14 15.98,-1.26 24.15,-3.27 8.17,-2.11 16.44,-5.1 24.7,-8.86l1.64 93.94zm222.15 -127.95l61.36 10.83c-0.67,-33.37 -0.32,-68.12 0.81,-104.27 1.16,-36.16 3.3,-74.14 6.42,-113.95 -10.72,33.69 -21.86,67.86 -33.29,102.42 -11.44,34.57 -23.15,69.53 -35.3,104.97zm-149.73 130.93l188.73 -442.27 96.41 16.99 21.01 479.27 -91.98 -16.22 -1.17 -83.59 -92.63 -16.34 -28.49 78.36 -91.88 -16.2zm504.7 30.3l6.97 2.27c31.56,10.25 59.48,6.19 83.82,-12.04 24.37,-18.32 43.87,-49.98 58.55,-95.18 15.74,-48.43 19.29,-86.99 10.8,-115.78 -8.53,-28.67 -29.39,-48.47 -62.71,-59.29l-5.83 -1.89 -91.6 281.91zm-114.67 53.81l144.73 -445.41 76.33 24.8c68.74,22.34 113.99,57.42 135.89,105.17 21.87,47.87 20.67,109.31 -3.7,184.29 -14.68,45.2 -33.21,80.97 -55.52,107.46 -22.31,26.49 -49.87,45.39 -82.82,56.8 -19.51,6.9 -40.09,9.65 -61.54,8.32 -21.54,-1.37 -50.37,-7.96 -86.5,-19.7l-66.87 -21.73zm548.37 143.56c20.98,11.64 42.64,9.36 65.14,-6.83 22.59,-16.15 45.98,-46.13 70.4,-90.19 24.57,-44.34 37.72,-80.25 39.44,-107.96 1.81,-27.67 -7.74,-47.24 -28.72,-58.87 -20.98,-11.62 -42.64,-9.36 -64.94,6.71 -22.34,16.15 -45.89,46.41 -70.57,90.95 -24.63,44.44 -37.73,80.26 -39.52,107.67 -1.81,27.42 7.8,46.9 28.77,58.52zm214.1 -46.08c-34.61,62.44 -75.23,104.78 -121.76,127.06 -46.64,22.23 -91.78,21.24 -135.55,-3.02 -45.3,-25.11 -70.3,-63.13 -75,-114.05 -4.84,-50.9 11.03,-109.33 47.56,-175.23 36.35,-65.6 77.65,-110.06 123.87,-133.14 46.28,-23.17 91.68,-22.42 136.41,2.38 44.92,24.89 69.6,63.49 74.08,115.92 4.44,52.29 -12.08,112.36 -49.61,180.08z"/>
    <path class="fil5" d="M8912.91 20198.4c163.79,0 252.3,82.61 266.34,231.72l-599.98 0c60.09,-142.91 174.16,-231.72 333.64,-231.72zm45.66 -328.41c435.22,0 676.02,247.76 661.85,656.12 -2.42,69.64 -9.42,134.15 -20.38,193.99l-1073.67 0c-10.68,196.12 19.57,324.31 250.95,324.31 142.51,0 228.41,-47.14 285.53,-130.84l482.03 0c-148.67,367.38 -491.84,488.04 -828.78,488.04 -408.81,0 -741,-233.37 -688.24,-700.81 66.76,-591.45 495.5,-830.81 930.71,-830.81z"/>
    <path class="fil6" d="M12005.93 19180.58c153.54,0 299.78,44.25 428.4,115.2l-104.06 655.29c-74.62,-133.66 -215.52,-233.78 -435.11,-238.65 -361.02,-8 -673.77,314.03 -678.58,688.67 -2.95,230.24 121.5,467.34 497.05,479.76 171.86,5.68 367.73,-79.62 505.51,-230.03l-105.71 665.61c-130.11,40.82 -332.54,90.26 -492.36,90.26 -568.71,0 -1049.24,-393.2 -976.34,-1039.69 83.18,-737.7 730.28,-1186.42 1361.2,-1186.42z"/>
    <path class="fil5" d="M10359.12 19077.92c158.04,0 254.75,136 235.97,252.44 -31.49,195.25 -165.98,316.41 -324.02,316.41 -148.46,0 -269.66,-113.4 -249.93,-260.28 28.19,-209.86 179.94,-308.57 337.98,-308.57zm-619.97 2276.12l504.68 0 224.75 -1436.11 -504.69 0 -224.74 1436.11z"/>
    <polygon class="fil5" points="8652.96,21755.89 12045.28,21755.89 12045.28,22616.65 8652.96,22616.65 "/>
    <path class="fil3" d="M8895.96 22487.37l106.24 -605.68 155.17 0 56.23 258.04c0.96,3.79 2.35,9.77 4.06,17.84 13.43,62.3 21.55,119.23 24.38,170.92 -0.34,-4.1 -0.65,-8.68 -0.78,-13.3 -0.13,-4.67 -0.17,-11.91 -0.17,-21.56 0,-22.94 0.95,-46.84 2.96,-71.5 1.87,-24.77 5.15,-52.51 9.85,-83.27l41.59 -257.17 131.82 0 -105.78 605.68 -135.89 0 -68.58 -290.45c-7.69,-33.98 -13.31,-62.29 -16.75,-85.24 -3.58,-22.82 -6.07,-45.33 -7.47,-67.84 -2.17,24.34 -4.71,47.86 -7.68,70.54 -2.79,22.78 -5.93,44.02 -9.37,64l-46.68 308.99 -133.15 0zm728.19 -352.62c1.88,0 4.54,0.14 8.3,0.44 3.61,0.26 6.23,0.44 7.62,0.44 34.55,0 60.81,-7.68 78.75,-23.12 17.97,-15.27 27.05,-37.65 27.05,-66.97 0,-20.24 -6.11,-35.25 -18.28,-45.2 -12.18,-10.03 -30.63,-15 -55.46,-15 -5.49,0 -9.73,0.22 -12.51,0.31 -2.92,0.13 -5.64,0.26 -7.94,0.56l-27.53 148.54zm-194.96 352.62l106.22 -605.68 162.81 0c67.8,0 116.52,12.3 146.54,37.08 29.85,24.82 44.84,64.87 44.84,120.1 0,68.14 -21.89,120.54 -65.61,157.22 -43.88,36.82 -106.79,55.23 -188.42,55.23l-20.62 0 -10.47 0 -41.23 236.05 -134.06 0zm786.77 -238.62l98.43 0 33.88 -170.92c2.98,-15.45 6.59,-31.28 10.66,-47.43 4.18,-16.18 9.02,-33.28 14.52,-51.3 -8.9,19.42 -17.54,37.26 -25.96,53.53 -8.42,16.27 -16.09,30.32 -23.12,41.92l-108.41 174.2zm57.2 238.62l24.21 -142.74 -199.54 0 19.72 -112.85 224.79 -350.09 153.74 0 -63.61 367.06 50.35 0 -16.45 95.88 -50.91 0 -24.21 142.74 -118.09 0zm355.23 -238.62l98.42 0 33.89 -170.92c3.01,-15.45 6.6,-31.28 10.65,-47.43 4.23,-16.18 9.08,-33.28 14.53,-51.3 -8.91,19.42 -17.54,37.26 -25.96,53.53 -8.43,16.27 -16.05,30.32 -23.08,41.92l-108.45 174.2zm57.2 238.62l24.21 -142.74 -199.5 0 19.67 -112.85 224.8 -350.09 153.73 0 -63.56 367.06 50.3 0 -16.4 95.88 -50.96 0 -24.21 142.74 -118.08 0zm333.68 0l85.16 -491.95 -65.48 0 19.72 -113.73 193.99 0 -105.27 605.68 -128.12 0zm314 -188.76l123.6 0c0,1.7 -0.13,3.97 -0.49,7.07 -0.91,9.38 -1.39,15.87 -1.39,19.41 0,17.58 4.36,31.15 12.83,41.22 8.59,9.91 20.16,14.89 34.81,14.89 20.46,0 36.73,-9.52 48.72,-28.5 12.05,-18.84 18.15,-44.32 18.15,-76.03 0,-21.69 -5.93,-37.26 -17.67,-46.72 -11.69,-9.52 -30.96,-14.31 -57.49,-14.31l-14.22 0 18.75 -101.26c1.58,0 4.06,0.13 7.68,0.4 3.4,0.3 5.94,0.43 7.5,0.43 31.37,0 55.94,-7.37 73.25,-22.25 17.37,-14.7 26.09,-35.37 26.09,-62.03 0,-14.57 -3.27,-25.92 -9.99,-33.81 -6.71,-7.81 -16.23,-11.78 -28.43,-11.78 -14.67,0 -26.71,5.11 -36.22,15.32 -9.38,10.33 -17.06,26.34 -22.82,48.11l-115.3 0c9.52,-58.9 29.68,-102.69 60.6,-131.26 30.89,-28.58 73.9,-42.88 128.91,-42.88 48.73,0 86.38,11.59 112.94,34.67 26.57,23.08 39.83,55.8 39.83,97.99 0,43.18 -11.38,79.61 -34.07,109.19 -22.82,29.62 -53.87,48.46 -93.57,56.36 26.57,3.97 47.38,15.31 62.52,34.29 15.13,18.98 22.63,42.92 22.63,71.94 0,61.72 -19.89,113.16 -59.55,154.21 -39.64,41.01 -89.65,61.6 -150.11,61.6 -50.47,0 -89.64,-14.14 -117.95,-42.49 -28.28,-28.45 -42.32,-67.97 -42.32,-118.93 0,-2.13 0.29,-6.23 0.78,-12.21 0.48,-5.93 1.09,-13.57 2,-22.64z"/>
    <path class="fil4" d="M8806.51 22950.69l6.19 -209.9c-2.58,18.14 -6.97,40.4 -13.25,66.84 -0.65,2.82 -1.19,4.99 -1.56,6.56l-32.45 136.5 -51.01 0 64.56 -257.52 66.17 0 -1.09 101.94c-0.11,11.67 -0.78,25.77 -1.98,42.32 -1.26,16.62 -3.01,35.95 -5.23,58.04 3.19,-20.12 6.67,-38.64 10.4,-55.74 3.81,-17.05 7.78,-32.47 11.99,-46.18l31.44 -100.38 64.36 0 -14.1 257.52 -53.11 0 11.08 -119.04c0.61,-5.65 2,-17.03 4.1,-34.08 2.11,-17.03 4.52,-35.95 7.22,-56.78 -3.67,16.14 -6.85,29.8 -9.63,41.01 -2.78,11.25 -4.82,19.14 -6.25,23.72l-45.16 145.17 -42.69 0zm226.52 -40.41c3.54,0 6.73,-1.49 9.56,-4.51 2.84,-2.96 5.23,-7.41 7.23,-13.3 2.72,-7.77 5,-16.92 6.87,-27.59 1.86,-10.64 2.82,-19.37 2.82,-26.19 0,-6.8 -1.09,-11.91 -3.19,-15.29 -2.11,-3.31 -5.41,-5 -9.87,-5 -6.82,0 -12.64,7.1 -17.52,21.33 -4.87,14.25 -7.35,31.61 -7.35,52 0,6.52 0.89,11.21 2.72,14.17 1.87,2.95 4.76,4.38 8.73,4.38zm83.98 -132.63l-27.52 173.04 -46.23 0 2.83 -18.01c-7.28,8.12 -13.86,13.86 -19.64,17.29 -5.82,3.43 -11.9,5.1 -18.29,5.1 -12.23,0 -21.38,-4.99 -27.39,-14.98 -6.08,-10 -9.1,-25.11 -9.1,-45.34 0,-35.03 6.08,-63.64 18.24,-85.86 12.17,-22.2 27.94,-33.35 47.2,-33.35 5.78,0 11.26,1.63 16.49,4.87 5.26,3.19 10.06,8.08 14.51,14.51l2.85 -17.27 46.05 0zm83.82 173.04l17.27 -108.61c0.24,-1.33 0.44,-2.48 0.54,-3.57 0.14,-1.08 0.2,-2.04 0.2,-3.01 0,-4.09 -0.85,-7.11 -2.61,-9.08 -1.67,-1.94 -4.25,-2.89 -7.82,-2.89 -6.25,0 -11.55,3.25 -15.9,9.81 -4.32,6.5 -7.45,15.88 -9.32,28.11l-14.09 89.24 -46.97 0 27.35 -173.04 45.14 0 -3.13 23.48c9.28,-9.4 17.47,-15.96 24.57,-19.7 7.1,-3.67 14.58,-5.54 22.35,-5.54 9.62,0 17.03,2.85 22.2,8.56 5.19,5.71 7.78,13.9 7.78,24.63 0,3.48 -0.37,8.43 -1.09,14.69 -0.67,6.32 -1.8,13.9 -3.3,22.87l-16.62 104.05 -46.55 0zm106.22 -173.04l46.23 0 -16.97 107.96c0,0.35 -0.06,0.82 -0.13,1.43 -0.84,5.3 -1.26,8.8 -1.26,10.6 0,4.69 1.2,8.26 3.61,10.71 2.41,2.48 5.91,3.74 10.49,3.74 9.75,0 16.38,-10.95 19.75,-32.8l0 -0.55 15.9 -101.09 46.7 0 -19.2 118.19c-3.2,20.11 -10.1,34.8 -20.84,44.14 -10.7,9.25 -26.06,13.9 -46.05,13.9 -18.55,0 -32.64,-4.11 -42.2,-12.34 -9.58,-8.25 -14.4,-20.35 -14.4,-36.38 0,-4.09 0.43,-9.86 1.26,-17.27 0.78,-7.41 2.3,-18.01 4.41,-31.91l12.7 -78.33zm137.39 173.04l20.84 -132.64 -17.29 0 6.51 -40.4 17.27 0 7.95 -51 46.73 0 -7.96 51 20.84 0 -6.5 40.4 -20.83 0 -21.03 132.64 -46.53 0zm225.78 -58.22c-4.93,18.83 -13.96,33.78 -27.15,44.79 -13.18,11.08 -28.37,16.62 -45.53,16.62 -19.61,0 -34.6,-6.02 -44.9,-18.07 -10.29,-12.1 -15.42,-29.74 -15.42,-53.05 0,-33.82 7.1,-60.38 21.37,-79.52 14.21,-19.2 33.85,-28.78 58.89,-28.78 18.73,0 33.24,5.36 43.53,16.07 10.3,10.67 15.4,25.76 15.4,45.33 0,5.43 -0.28,11.26 -0.89,17.53 -0.54,6.33 -1.5,13.67 -2.82,22.16l-90.69 0c-0.24,1.63 -0.41,3.3 -0.54,4.93 -0.11,1.63 -0.18,3.8 -0.18,6.39 0,8.53 1.87,15.22 5.67,19.92 3.72,4.71 8.97,7.06 15.71,7.06 5.41,0 9.92,-1.76 13.66,-5.26 3.67,-3.43 6.63,-8.84 8.73,-16.12l45.16 0zm-35.47 -46.18c0.13,-1.09 0.24,-2.24 0.3,-3.43 0.07,-1.28 0.07,-3.02 0.07,-5.26 0,-7.64 -1.74,-13.6 -5.17,-17.81 -3.5,-4.28 -8.38,-6.39 -14.58,-6.39 -7.1,0 -13.18,2.96 -18.31,8.87 -5.1,5.88 -8.42,13.9 -9.92,24.02l47.61 0zm129.7 104.4l17.27 -108.61c0.24,-1.33 0.44,-2.48 0.54,-3.57 0.14,-1.08 0.2,-2.04 0.2,-3.01 0,-4.09 -0.85,-7.11 -2.61,-9.08 -1.67,-1.94 -4.25,-2.89 -7.82,-2.89 -6.25,0 -11.55,3.25 -15.9,9.81 -4.32,6.5 -7.45,15.88 -9.32,28.11l-14.09 89.24 -46.97 0 27.35 -173.04 45.14 0 -3.13 23.48c9.28,-9.4 17.47,-15.96 24.57,-19.7 7.1,-3.67 14.58,-5.54 22.35,-5.54 9.62,0 17.03,2.85 22.2,8.56 5.19,5.71 7.78,13.9 7.78,24.63 0,3.48 -0.37,8.43 -1.09,14.69 -0.67,6.32 -1.8,13.9 -3.3,22.87l-16.62 104.05 -46.55 0zm184.12 -131.99c-2.46,-0.47 -4.87,-0.84 -7.21,-1.19 -2.35,-0.37 -4.22,-0.54 -5.67,-0.54 -12.34,0 -22.27,5.71 -29.87,17.09 -7.58,11.45 -11.36,26.2 -11.36,44.31 0,9.65 2.04,16.99 6.06,22.05 4.04,5.04 9.88,7.58 17.42,7.58 2.89,0 5.58,-0.24 8.06,-0.78 2.48,-0.54 5.13,-1.45 7.95,-2.78l-4.04 42.75c-6.15,2.35 -11.86,4.04 -17.23,5.13 -5.34,1.02 -10.64,1.56 -15.94,1.56 -14.58,0 -26.13,-5.84 -34.69,-17.57 -8.49,-11.69 -12.75,-27.72 -12.75,-48.05 0,-34.21 6.97,-61.78 20.87,-82.57 13.99,-20.83 32.28,-31.23 54.98,-31.23 4.82,0 9.65,0.41 14.45,1.32 4.82,0.89 9.64,2.22 14.46,3.98l-5.49 38.94zm-110.07 207.86l7.95 -21.74c6.93,2.95 13.69,5.1 20.12,6.56 6.51,1.39 12.88,2.1 19.2,2.1 4.89,0 8.73,-1.25 11.75,-3.8 3,-2.52 4.52,-5.77 4.52,-9.79 0,-5.06 -2,-8.5 -6.02,-10.36 -3.97,-1.81 -13.07,-2.83 -27.17,-3.09l12.36 -35.75 17.98 0 -5.47 15.83c12.84,0 22.53,2.59 29.15,7.71 6.56,5.11 9.86,12.52 9.86,22.27 0,12.6 -3.91,22.39 -11.79,29.32 -7.89,6.93 -19.03,10.43 -33.35,10.43 -5.9,0 -13.07,-0.85 -21.44,-2.48 -8.42,-1.63 -17.63,-4.04 -27.65,-7.21zm184.14 -116.28c3.54,0 6.73,-1.49 9.56,-4.51 2.84,-2.96 5.23,-7.41 7.23,-13.3 2.72,-7.77 5,-16.92 6.87,-27.59 1.86,-10.64 2.82,-19.37 2.82,-26.19 0,-6.8 -1.09,-11.91 -3.19,-15.29 -2.11,-3.31 -5.41,-5 -9.87,-5 -6.82,0 -12.64,7.1 -17.53,21.33 -4.86,14.25 -7.34,31.61 -7.34,52 0,6.52 0.89,11.21 2.72,14.17 1.87,2.95 4.75,4.38 8.73,4.38zm83.98 -132.63l-27.52 173.04 -46.23 0 2.82 -18.01c-7.27,8.12 -13.85,13.86 -19.63,17.29 -5.82,3.43 -11.91,5.1 -18.29,5.1 -12.23,0 -21.38,-4.99 -27.39,-14.98 -6.09,-10 -9.1,-25.11 -9.1,-45.34 0,-35.03 6.08,-63.64 18.24,-85.86 12.17,-22.2 27.94,-33.35 47.2,-33.35 5.78,0 11.26,1.63 16.49,4.87 5.26,3.19 10.06,8.08 14.51,14.51l2.85 -17.27 46.05 0zm0.71 -81.35c-2.69,14.34 -6.9,25.05 -12.57,32.08 -5.72,7.06 -13.01,10.6 -21.79,10.6 -2.24,0 -4.45,-0.17 -6.63,-0.58 -2.17,-0.44 -4.27,-1.04 -6.25,-1.87l-9.52 -3.74c-1.93,-0.54 -3.62,-1.02 -5.06,-1.32 -1.45,-0.31 -2.89,-0.44 -4.34,-0.44 -3.61,0 -6.67,1.33 -9.15,3.98 -2.47,2.65 -4.34,6.52 -5.67,11.56l-17.26 0c2.71,-14.08 6.92,-24.75 12.7,-31.91 5.78,-7.15 12.95,-10.78 21.49,-10.78 2.17,0 4.45,0.24 6.99,0.74 2.52,0.48 4.93,1.06 7.17,1.91l8.97 3.19c1.91,0.72 3.43,1.22 4.69,1.57 1.2,0.37 2.28,0.54 3.26,0.54 4.02,0 7.28,-1.26 9.8,-3.73 2.54,-2.46 4.41,-6.39 5.73,-11.8l17.44 0zm73.71 216.16c10.6,0 18.98,-6.15 25.11,-18.42 6.08,-12.36 9.16,-29.22 9.16,-50.64 0,-9.4 -1.63,-16.38 -4.88,-21.02 -3.2,-4.57 -8.19,-6.87 -14.88,-6.87 -10.58,0 -18.9,6.28 -24.98,18.79 -6.09,12.58 -9.08,29.74 -9.08,51.66 0,9.21 1.56,15.9 4.69,20.11 3.06,4.28 8.06,6.39 14.86,6.39zm78.35 -70.82c0,34.63 -7,61.95 -21.03,82.07 -13.97,20.11 -32.8,30.17 -56.58,30.17 -21.51,0 -37.65,-5.97 -48.29,-17.88 -10.73,-11.99 -16.08,-30.04 -16.08,-54.32 0,-32.2 7.21,-58.22 21.62,-77.96 14.38,-19.75 33.34,-29.63 56.82,-29.63 20.12,0 35.78,5.91 46.86,17.64 11.14,11.75 16.68,28.43 16.68,49.91zm159.13 68.64c2.96,0 5.78,-1.56 8.5,-4.69 2.69,-3.06 5.04,-7.47 7.03,-13.12 2.72,-8.14 5,-17.4 6.87,-27.89 1.87,-10.4 2.82,-19.07 2.82,-25.89 0,-6.8 -1.08,-11.91 -3.19,-15.29 -2.11,-3.31 -5.41,-5 -9.86,-5 -6.82,0 -12.64,7.23 -17.53,21.61 -4.87,14.4 -7.34,31.87 -7.34,52.46 0,6.02 1.02,10.47 3.06,13.43 2.04,2.95 5.3,4.38 9.64,4.38zm98.62 -233.01l-43.42 273.42 -44.42 0 2.82 -17.29c-8.25,8.01 -15.36,13.62 -21.24,16.81 -5.98,3.26 -12.1,4.86 -18.49,4.86 -12.23,0 -21.37,-4.93 -27.39,-14.81 -6.08,-9.86 -9.1,-24.81 -9.1,-44.79 0,-35.17 5.78,-63.99 17.4,-86.52 11.55,-22.52 26.26,-33.78 44.01,-33.78 7.16,0 13.66,1.63 19.57,4.93 5.84,3.33 11.01,8.26 15.53,14.82l18.14 -117.65 46.59 0zm127.53 215.2c-4.93,18.83 -13.97,33.78 -27.15,44.79 -13.19,11.08 -28.37,16.62 -45.53,16.62 -19.62,0 -34.6,-6.02 -44.9,-18.07 -10.3,-12.1 -15.42,-29.74 -15.42,-53.05 0,-33.82 7.1,-60.38 21.37,-79.52 14.21,-19.2 33.84,-28.78 58.89,-28.78 18.72,0 33.23,5.36 43.53,16.07 10.3,10.67 15.4,25.76 15.4,45.33 0,5.43 -0.28,11.26 -0.89,17.53 -0.54,6.33 -1.5,13.67 -2.82,22.16l-90.69 0c-0.24,1.63 -0.42,3.3 -0.55,4.93 -0.1,1.63 -0.17,3.8 -0.17,6.39 0,8.53 1.87,15.22 5.67,19.92 3.71,4.71 8.97,7.06 15.7,7.06 5.41,0 9.93,-1.76 13.67,-5.26 3.67,-3.43 6.62,-8.84 8.73,-16.12l45.16 0zm-35.47 -46.18c0.13,-1.09 0.24,-2.24 0.3,-3.43 0.07,-1.28 0.07,-3.02 0.07,-5.26 0,-7.64 -1.74,-13.6 -5.17,-17.81 -3.5,-4.28 -8.39,-6.39 -14.58,-6.39 -7.1,0 -13.18,2.96 -18.31,8.87 -5.1,5.88 -8.43,13.9 -9.93,24.02l47.62 0zm133.74 104.4l40.77 -257.52 110.96 0 -7.23 47.27 -60.33 0 -8.66 53.39 53.11 0 -7.61 49.57 -53.08 0 -9.35 57.74 60.33 0 -7.95 49.55 -110.96 0zm122.06 0l59.3 -90.67 -26.79 -82.37 48.84 0 6.86 33.71c0.11,0.65 0.35,3.02 0.72,6.93 0.37,3.98 0.78,9.86 1.39,17.75 0.95,-5.54 1.91,-10.34 2.89,-14.51 1.02,-4.09 2.1,-7.41 3.3,-9.86l15.83 -34.02 52.4 0 -50.29 79.89 28.24 93.15 -49.01 0 -8.84 -38.13c-0.8,-3.36 -1.52,-7.03 -2.13,-10.88 -0.58,-3.91 -1.02,-8.12 -1.36,-12.71 -1.09,4.33 -2.35,8.61 -3.91,12.82 -1.53,4.28 -3.44,8.73 -5.8,13.42l-17.45 35.48 -54.19 0zm164.43 0l20.83 -132.64 -17.29 0 6.52 -40.4 17.27 0 7.95 -51 46.72 0 -7.95 51 20.83 0 -6.49 40.4 -20.83 0 -21.03 132.64 -46.53 0zm119.56 -225.78c0,-9.52 3.32,-17.77 10.01,-24.7 6.63,-6.93 14.56,-10.4 23.9,-10.4 7.53,0 13.49,2.21 18,6.66 4.46,4.52 6.67,10.5 6.67,18.01 0,9.89 -3.43,18.31 -10.29,25.22 -6.91,6.93 -15.16,10.43 -24.81,10.43 -6.91,0 -12.58,-2.35 -16.96,-7 -4.35,-4.62 -6.52,-10.71 -6.52,-18.22zm15.9 225.78l-46.53 0 27.26 -173.04 46.79 0 -27.52 173.04zm113.43 0l17.27 -108.61c0.24,-1.33 0.44,-2.48 0.54,-3.57 0.13,-1.08 0.2,-2.04 0.2,-3.01 0,-4.09 -0.85,-7.11 -2.61,-9.08 -1.67,-1.94 -4.25,-2.89 -7.82,-2.89 -6.25,0 -11.55,3.25 -15.9,9.81 -4.32,6.5 -7.45,15.88 -9.32,28.11l-14.09 89.24 -46.97 0 27.35 -173.04 45.14 0 -3.13 23.48c9.28,-9.4 17.47,-15.96 24.57,-19.7 7.1,-3.67 14.57,-5.54 22.35,-5.54 9.62,0 17.03,2.85 22.2,8.56 5.19,5.71 7.78,13.9 7.78,24.63 0,3.48 -0.37,8.43 -1.09,14.69 -0.67,6.32 -1.8,13.9 -3.3,22.87l-16.62 104.05 -46.55 0zm87.5 0l20.83 -132.64 -17.29 0 6.52 -40.4 17.26 0 7.95 -51 46.73 0 -7.95 51 20.83 0 -6.5 40.4 -20.83 0 -21.02 132.64 -46.53 0zm156.77 -38.23c10.6,0 18.98,-6.15 25.11,-18.42 6.08,-12.36 9.16,-29.22 9.16,-50.64 0,-9.4 -1.63,-16.38 -4.88,-21.02 -3.2,-4.57 -8.19,-6.87 -14.88,-6.87 -10.58,0 -18.9,6.28 -24.98,18.79 -6.09,12.58 -9.08,29.74 -9.08,51.66 0,9.21 1.56,15.9 4.69,20.11 3.06,4.28 8.06,6.39 14.86,6.39zm78.35 -70.82c0,34.63 -7,61.95 -21.03,82.07 -13.97,20.11 -32.8,30.17 -56.59,30.17 -21.5,0 -37.64,-5.97 -48.28,-17.88 -10.73,-11.99 -16.08,-30.04 -16.08,-54.32 0,-32.2 7.21,-58.22 21.62,-77.96 14.38,-19.75 33.34,-29.63 56.82,-29.63 20.11,0 35.78,5.91 46.85,17.64 11.15,11.75 16.69,28.43 16.69,49.91zm11.66 109.05l27.35 -173.04 44.79 0 -3.13 23.83c6.08,-8.97 12.45,-15.6 19.03,-19.92 6.56,-4.34 14.14,-6.93 22.74,-7.78l-6.86 48.36c-24.81,0.95 -40.03,19.5 -45.7,55.69 -0.48,3.32 -0.89,5.95 -1.2,7.95l-10.06 64.91 -46.96 0zm246.98 -58.22c-4.93,18.83 -13.97,33.78 -27.15,44.79 -13.19,11.08 -28.37,16.62 -45.53,16.62 -19.62,0 -34.6,-6.02 -44.9,-18.07 -10.3,-12.1 -15.42,-29.74 -15.42,-53.05 0,-33.82 7.1,-60.38 21.37,-79.52 14.21,-19.2 33.84,-28.78 58.89,-28.78 18.72,0 33.23,5.36 43.53,16.07 10.3,10.67 15.4,25.76 15.4,45.33 0,5.43 -0.28,11.26 -0.89,17.53 -0.54,6.33 -1.5,13.67 -2.82,22.16l-90.69 0c-0.24,1.63 -0.42,3.3 -0.55,4.93 -0.1,1.63 -0.17,3.8 -0.17,6.39 0,8.53 1.87,15.22 5.67,19.92 3.71,4.71 8.97,7.06 15.7,7.06 5.41,0 9.93,-1.76 13.67,-5.26 3.67,-3.43 6.62,-8.84 8.73,-16.12l45.16 0zm-35.47 -46.18c0.13,-1.09 0.24,-2.24 0.3,-3.43 0.07,-1.28 0.07,-3.02 0.07,-5.26 0,-7.64 -1.74,-13.6 -5.17,-17.81 -3.5,-4.28 -8.39,-6.39 -14.58,-6.39 -7.1,0 -13.18,2.96 -18.31,8.87 -5.1,5.88 -8.43,13.9 -9.93,24.02l47.62 0zm48.35 93.32l7.23 -43.42c6.5,5.3 13.12,9.4 20.05,12.23 6.87,2.88 13.3,4.34 19.27,4.34 4.28,0 7.52,-1.09 9.86,-3.19 2.35,-2.11 3.57,-5.06 3.57,-8.8 0,-6.56 -6.26,-14.99 -18.86,-25.22l-0.89 -0.74c-9.17,-7.51 -15.66,-14.44 -19.4,-20.87 -3.78,-6.39 -5.65,-13.56 -5.65,-21.44 0,-16.92 5.85,-30.83 17.58,-41.73 11.68,-10.9 26.74,-16.31 45.03,-16.31 5.67,0 11.62,0.65 17.83,2.04 6.26,1.32 13.19,3.56 20.83,6.62l-6.56 44.08c-6.32,-3.67 -12.16,-6.32 -17.46,-8.02 -5.24,-1.74 -10.12,-2.58 -14.64,-2.58 -5.17,0 -9.21,1.08 -12.21,3.19 -3.02,2.11 -4.52,4.93 -4.52,8.43 0,4.28 5.71,10.66 17.1,19.27 2.82,2.1 4.93,3.8 6.38,4.93 9.76,7.64 16.19,14.46 19.27,20.42 3.13,5.9 4.69,13.25 4.69,21.91 0,17.64 -5.6,31.91 -16.85,42.82 -11.21,10.88 -25.96,16.31 -44.21,16.31 -7.99,0 -15.83,-1.22 -23.52,-3.56 -7.71,-2.35 -15.66,-5.89 -23.92,-10.71z"/>
   </g>
  </g>
 </g>
</svg>
