<?xml version="1.0" encoding="utf-8" ?>
<svg baseProfile="tiny" height="100%" version="1.2" width="100%" xmlns="http://www.w3.org/2000/svg" xmlns:ev="http://www.w3.org/2001/xml-events" xmlns:xlink="http://www.w3.org/1999/xlink"><defs /><path d="M 1636,2692 1636,2758 Z" fill="blue" stroke="none" /><path d="M 100,2692 100,2758 Z" fill="blue" stroke="none" /><path d="M 1669,2659 1735,2659 Z" fill="blue" stroke="none" /><path d="M 0,2659 66,2659 Z" fill="blue" stroke="none" /><path d="M 1040,1893 1039,1894 1037,1894 1037,1895 1036,1896 1036,1899 1039,1902 1039,1903 1038,1904 1037,1904 1036,1903 1035,1903 1035,1906 1037,1906 1038,1907 1039,1906 1041,1906 1042,1905 1042,1903 1043,1902 1042,1901 1042,1900 1039,1897 1040,1896 1043,1896 1043,1894 1042,1893 Z" fill="blue" stroke="none" /><path d="M 1027,1893 1024,1896 1024,1897 1023,1898 1023,1903 1024,1904 1024,1905 1025,1906 1030,1906 1033,1903 1033,1902 1030,1902 1028,1904 1026,1902 1026,1901 1027,1900 1033,1900 1033,1899 1034,1898 1033,1897 1033,1895 1032,1894 1031,1894 1030,1893 Z" fill="blue" stroke="none" /><path d="M 1017,1893 1016,1894 1016,1897 1015,1898 1015,1904 1014,1905 1014,1906 1017,1906 1018,1905 1018,1901 1019,1900 1019,1898 1020,1897 1021,1897 1022,1896 1022,1893 1021,1894 1020,1894 1019,1893 Z" fill="blue" stroke="none" /><path d="M 1006,1893 1003,1896 1003,1897 1002,1898 1002,1903 1003,1904 1003,1905 1004,1906 1005,1906 1006,1907 1007,1907 1008,1906 1009,1906 1010,1905 1011,1905 1011,1904 1012,1903 1012,1900 1013,1899 1013,1897 1012,1896 1012,1895 1011,1894 1010,1894 1009,1893 Z" fill="blue" stroke="none" /><path d="M 984,1893 984,1894 983,1895 983,1901 982,1902 982,1906 985,1906 985,1903 986,1902 986,1898 987,1897 988,1897 989,1898 989,1902 988,1903 988,1906 991,1906 991,1904 992,1903 992,1897 993,1896 992,1895 992,1894 991,1893 990,1893 989,1894 987,1894 986,1893 Z" fill="blue" stroke="none" /><path d="M 978,1893 977,1894 977,1898 976,1899 976,1904 975,1905 975,1906 978,1906 979,1905 979,1900 980,1899 980,1893 Z" fill="blue" stroke="none" /><path d="M 958,1893 958,1895 959,1896 959,1898 960,1899 960,1900 958,1902 958,1903 956,1905 956,1906 959,1906 960,1905 960,1904 961,1903 962,1904 962,1906 966,1906 965,1905 965,1902 964,1901 964,1899 965,1898 965,1897 967,1895 967,1893 964,1893 964,1894 963,1895 962,1895 961,1894 961,1893 Z" fill="blue" stroke="none" /><path d="M 932,1893 931,1894 930,1894 929,1895 929,1896 928,1897 928,1900 927,1901 928,1902 928,1905 929,1905 930,1906 931,1906 932,1907 933,1906 935,1906 936,1905 936,1904 937,1903 937,1902 935,1902 933,1904 932,1904 931,1903 931,1901 932,1900 938,1900 938,1897 937,1896 937,1894 935,1894 934,1893 Z" fill="blue" stroke="none" /><path d="M 901,1893 900,1894 899,1894 898,1895 898,1896 897,1897 897,1900 896,1901 896,1902 897,1903 897,1905 898,1906 900,1906 901,1907 902,1906 904,1906 906,1904 906,1903 907,1902 907,1896 906,1895 906,1894 904,1894 903,1893 Z" fill="blue" stroke="none" /><path d="M 888,1893 885,1896 885,1898 884,1899 884,1904 885,1905 885,1906 886,1906 887,1907 888,1906 893,1906 893,1903 894,1902 894,1897 895,1896 895,1893 892,1893 891,1894 890,1893 Z" fill="blue" stroke="none" /><path d="M 880,1893 879,1894 878,1894 877,1895 877,1896 876,1897 876,1899 875,1900 875,1902 876,1903 876,1905 878,1907 877,1908 877,1909 878,1909 879,1910 879,1911 878,1912 876,1912 875,1911 875,1913 880,1913 881,1912 881,1909 880,1909 879,1908 881,1906 881,1903 880,1903 878,1901 879,1900 879,1898 881,1896 882,1896 883,1895 883,1893 Z" fill="blue" stroke="none" /><path d="M 865,1893 864,1894 864,1899 863,1900 863,1906 866,1906 866,1901 867,1900 867,1898 868,1897 869,1897 870,1898 870,1901 869,1902 869,1906 872,1906 872,1903 873,1902 873,1894 872,1893 870,1893 869,1894 868,1894 867,1893 Z" fill="blue" stroke="none" /><path d="M 833,1893 832,1894 832,1899 831,1900 831,1903 832,1904 832,1906 834,1906 835,1907 836,1906 838,1906 840,1904 840,1902 841,1901 841,1896 842,1895 842,1894 841,1893 839,1893 839,1894 838,1895 838,1900 837,1901 837,1903 836,1904 834,1902 834,1901 835,1900 835,1895 836,1894 835,1893 Z" fill="blue" stroke="none" /><path d="M 821,1893 820,1894 820,1897 819,1898 819,1903 818,1904 818,1906 821,1906 821,1905 822,1904 822,1900 823,1899 823,1898 824,1897 825,1897 826,1898 825,1899 825,1904 824,1905 824,1906 827,1906 828,1905 828,1900 829,1899 829,1894 828,1894 827,1893 826,1893 825,1894 824,1894 823,1893 Z" fill="blue" stroke="none" /><path d="M 810,1893 807,1896 807,1898 806,1899 806,1904 807,1905 807,1906 808,1906 809,1907 810,1906 815,1906 815,1904 816,1903 816,1897 817,1896 817,1893 814,1893 813,1894 812,1893 Z" fill="blue" stroke="none" /><path d="M 998,1889 997,1890 997,1892 995,1894 995,1896 996,1897 996,1901 995,1902 995,1906 998,1906 998,1903 999,1902 999,1897 1000,1896 1001,1896 1001,1895 1002,1894 1000,1892 1000,1889 Z" fill="blue" stroke="none" /><path d="M 971,1889 971,1892 970,1893 969,1893 969,1896 970,1897 970,1898 969,1899 969,1904 968,1905 968,1906 971,1906 972,1905 972,1900 973,1899 973,1897 974,1896 975,1896 975,1893 974,1892 974,1889 Z" fill="blue" stroke="none" /><path d="M 846,1889 846,1892 844,1894 844,1896 845,1897 845,1899 844,1900 844,1906 847,1906 847,1901 848,1900 848,1897 849,1896 850,1896 851,1897 851,1904 853,1906 854,1906 855,1907 856,1906 858,1906 860,1904 860,1902 858,1902 856,1904 855,1904 854,1903 854,1901 855,1900 861,1900 861,1896 860,1895 860,1894 859,1894 858,1893 855,1893 853,1895 852,1895 852,1896 851,1897 850,1896 850,1893 849,1892 849,1889 Z" fill="blue" stroke="none" /><path d="M 949,1887 949,1888 948,1889 948,1894 947,1895 947,1901 946,1902 946,1906 954,1906 954,1903 951,1903 950,1902 950,1899 951,1898 955,1898 955,1895 952,1895 951,1894 951,1892 953,1890 956,1890 957,1889 957,1887 Z" fill="blue" stroke="none" /><path d="M 894,1887 893,1888 889,1888 888,1889 888,1890 889,1890 890,1889 891,1889 892,1890 893,1890 895,1888 895,1887 Z" fill="blue" stroke="none" /><path d="M 791,1887 791,1888 790,1889 790,1892 789,1893 789,1896 788,1897 788,1900 787,1901 787,1904 786,1905 786,1906 790,1906 790,1903 791,1902 791,1898 792,1897 793,1898 793,1906 796,1906 797,1905 797,1902 798,1901 798,1899 799,1898 800,1899 800,1906 803,1906 803,1903 804,1902 804,1887 800,1887 799,1888 799,1890 798,1891 798,1893 797,1894 796,1893 796,1887 Z" fill="blue" stroke="none" /><path d="M 980,1886 979,1887 978,1887 978,1890 979,1891 980,1890 981,1890 981,1889 982,1888 Z" fill="blue" stroke="none" /><path d="M 925,1885 924,1886 924,1889 923,1890 923,1893 922,1894 921,1893 919,1893 916,1896 916,1898 915,1899 915,1903 916,1904 916,1906 917,1906 918,1907 919,1906 924,1906 924,1904 925,1903 925,1897 926,1896 926,1891 927,1890 927,1885 Z" fill="blue" stroke="none" /><path d="M 720,1839 719,1840 718,1840 714,1844 714,1845 713,1846 713,1849 712,1850 712,1857 711,1858 711,1859 710,1860 709,1860 708,1861 707,1861 704,1858 704,1857 703,1856 703,1855 702,1856 701,1856 698,1859 699,1860 699,1862 700,1863 700,1864 701,1865 702,1865 704,1867 706,1867 707,1868 709,1868 710,1867 712,1867 713,1866 714,1866 717,1863 717,1862 718,1861 718,1860 719,1859 719,1852 720,1851 720,1848 722,1846 725,1846 728,1849 728,1853 729,1852 730,1852 734,1848 733,1847 733,1845 732,1844 732,1843 730,1841 729,1841 727,1839 Z" fill="blue" stroke="none" /><path d="M 711,1815 710,1816 709,1816 708,1817 707,1817 706,1818 707,1819 707,1820 708,1821 708,1822 710,1824 710,1825 709,1826 708,1826 707,1827 706,1827 705,1828 704,1828 703,1829 702,1829 701,1828 701,1827 700,1826 700,1825 699,1824 699,1823 698,1823 697,1824 696,1824 695,1825 694,1825 693,1826 694,1827 694,1828 695,1829 695,1830 696,1831 696,1832 693,1835 692,1835 691,1836 690,1836 688,1834 688,1833 687,1832 687,1831 686,1830 686,1829 685,1829 683,1831 682,1831 681,1832 680,1832 681,1833 681,1834 682,1835 682,1836 683,1837 683,1838 684,1839 684,1840 686,1842 686,1843 687,1844 687,1845 689,1845 691,1843 692,1843 693,1842 694,1842 695,1841 696,1841 697,1840 698,1840 700,1838 701,1838 702,1837 703,1837 704,1836 705,1836 706,1835 707,1835 709,1833 710,1833 711,1832 712,1832 713,1831 714,1831 715,1830 716,1830 718,1828 719,1828 719,1827 718,1826 718,1825 717,1824 717,1823 716,1822 716,1821 715,1820 715,1819 713,1817 713,1816 712,1815 Z" fill="blue" stroke="none" /><path d="M 781,1813 781,1880 1047,1880 1047,1813 Z" fill="blue" stroke="none" /><path d="M 700,1787 688,1799 686,1799 685,1798 684,1798 683,1797 677,1797 676,1798 675,1798 674,1799 673,1799 670,1802 670,1803 669,1804 669,1809 670,1810 670,1812 671,1813 671,1814 672,1815 672,1817 673,1818 673,1819 675,1819 676,1818 677,1818 678,1817 680,1817 681,1816 683,1816 684,1815 685,1815 686,1814 688,1814 689,1813 690,1813 691,1812 693,1812 694,1811 696,1811 697,1810 698,1810 699,1809 701,1809 702,1808 703,1808 704,1807 706,1807 707,1806 707,1805 706,1804 706,1802 705,1801 705,1800 704,1800 703,1801 701,1801 700,1802 699,1802 698,1803 696,1803 695,1804 694,1804 693,1803 701,1795 702,1795 702,1792 701,1791 701,1789 700,1788 Z" fill="blue" stroke="none" /><path d="M 658,1765 658,1769 659,1770 659,1772 670,1772 671,1773 681,1773 682,1774 681,1775 680,1775 679,1776 677,1776 676,1777 675,1777 674,1778 673,1778 672,1779 671,1779 670,1780 669,1780 668,1781 667,1781 666,1782 665,1782 664,1783 663,1783 662,1784 662,1788 663,1789 663,1791 664,1790 665,1790 666,1789 667,1789 668,1788 669,1788 670,1787 671,1787 672,1786 673,1786 674,1785 675,1785 676,1784 677,1784 678,1783 679,1783 681,1781 682,1781 683,1780 684,1780 685,1779 686,1779 687,1778 688,1778 689,1777 690,1777 691,1776 692,1776 693,1775 694,1775 695,1774 696,1774 696,1769 695,1768 694,1768 693,1767 679,1767 678,1766 664,1766 663,1765 Z" fill="blue" stroke="none" /><path d="M 690,1743 689,1744 676,1744 675,1745 662,1745 661,1746 656,1746 656,1751 657,1752 657,1753 661,1753 662,1752 675,1752 676,1751 690,1751 691,1750 693,1750 693,1745 692,1744 692,1743 Z" fill="blue" stroke="none" /><path d="M 658,1711 657,1712 657,1714 656,1715 656,1718 657,1719 657,1722 658,1723 658,1724 663,1729 664,1729 665,1730 666,1730 667,1731 670,1731 671,1732 682,1732 683,1731 684,1731 685,1730 686,1730 687,1729 688,1729 691,1726 691,1725 692,1724 692,1723 693,1722 698,1722 698,1721 700,1719 701,1719 702,1720 702,1724 701,1725 701,1726 702,1726 703,1727 704,1726 704,1725 705,1724 705,1718 703,1716 702,1716 701,1715 700,1715 699,1716 698,1716 696,1718 696,1719 695,1720 694,1720 693,1719 694,1718 694,1716 693,1715 693,1714 688,1714 687,1713 687,1718 686,1719 686,1720 683,1723 682,1723 681,1724 680,1724 679,1725 674,1725 673,1724 670,1724 669,1723 668,1723 667,1722 666,1722 665,1721 665,1720 663,1718 663,1713 664,1712 664,1711 Z" fill="blue" stroke="none" /><path d="M 672,1675 671,1676 669,1676 668,1677 667,1677 666,1678 665,1678 664,1679 664,1680 663,1681 663,1682 662,1683 662,1690 663,1691 663,1692 669,1698 670,1698 671,1699 672,1699 673,1700 675,1700 676,1701 679,1701 680,1702 690,1702 691,1701 692,1701 693,1700 694,1700 697,1697 697,1696 698,1695 698,1687 697,1686 697,1685 696,1684 696,1683 694,1681 693,1681 691,1679 690,1679 689,1678 688,1678 687,1677 685,1677 684,1676 680,1676 679,1675 Z" fill="blue" stroke="none" /><path d="M 884,1668 884,1673 883,1674 883,1679 882,1680 882,1685 881,1686 881,1692 880,1693 880,1698 879,1699 879,1704 878,1705 878,1711 877,1712 877,1717 876,1718 876,1724 875,1725 875,1730 874,1731 874,1736 873,1737 873,1743 872,1744 872,1749 871,1750 871,1756 870,1757 870,1762 869,1763 869,1768 868,1769 868,1775 867,1776 867,1781 905,1781 906,1780 906,1777 907,1776 907,1771 908,1770 908,1764 909,1763 909,1758 910,1757 910,1752 911,1751 911,1745 912,1744 912,1739 913,1738 913,1733 914,1732 914,1726 915,1725 915,1720 916,1719 916,1713 917,1712 917,1707 918,1706 918,1701 919,1700 919,1694 920,1693 920,1688 921,1687 921,1681 922,1680 922,1675 923,1674 923,1668 Z" fill="blue" stroke="none" /><path d="M 800,1664 799,1665 791,1665 790,1666 786,1666 785,1667 782,1667 781,1668 779,1668 778,1669 776,1669 775,1670 773,1670 772,1671 771,1671 770,1672 769,1672 768,1673 767,1673 766,1674 765,1674 763,1676 762,1676 760,1678 759,1678 755,1682 754,1682 749,1687 749,1688 745,1692 745,1693 743,1695 743,1696 742,1697 742,1698 741,1699 741,1700 740,1701 740,1702 739,1703 739,1704 738,1705 738,1706 737,1707 737,1709 736,1710 736,1712 735,1713 735,1715 734,1716 734,1719 733,1720 733,1724 732,1725 732,1734 731,1735 731,1739 732,1740 732,1747 733,1748 733,1751 734,1752 734,1754 735,1755 735,1757 736,1758 736,1759 737,1760 737,1761 739,1763 739,1764 744,1769 744,1770 745,1771 746,1771 750,1775 751,1775 752,1776 753,1776 754,1777 755,1777 756,1778 757,1778 758,1779 759,1779 760,1780 761,1780 762,1781 765,1781 766,1782 768,1782 769,1783 773,1783 774,1784 799,1784 800,1783 805,1783 806,1782 809,1782 810,1781 813,1781 814,1780 816,1780 817,1779 818,1779 819,1778 820,1778 821,1777 823,1777 824,1776 825,1776 827,1774 828,1774 830,1772 831,1772 834,1769 835,1769 842,1762 842,1761 845,1758 845,1757 846,1756 846,1755 848,1753 848,1752 849,1751 849,1750 850,1749 850,1746 814,1746 807,1753 806,1753 805,1754 804,1754 803,1755 801,1755 800,1756 796,1756 795,1757 786,1757 785,1756 782,1756 781,1755 780,1755 779,1754 778,1754 777,1753 776,1753 775,1752 775,1751 773,1749 773,1748 772,1747 772,1745 771,1744 771,1737 770,1736 770,1734 771,1733 771,1732 772,1731 855,1731 855,1729 856,1728 856,1721 857,1720 857,1708 856,1707 856,1701 855,1700 855,1697 854,1696 854,1694 853,1693 853,1691 852,1690 852,1689 851,1688 851,1687 850,1686 850,1685 848,1683 848,1682 840,1674 839,1674 837,1672 836,1672 835,1671 834,1671 833,1670 832,1670 831,1669 830,1669 829,1668 827,1668 826,1667 824,1667 823,1666 819,1666 818,1665 811,1665 810,1664 Z" fill="blue" stroke="none" /><path d="M 692,1621 689,1624 689,1625 688,1626 688,1627 687,1628 687,1636 688,1637 688,1639 690,1641 690,1642 694,1646 695,1646 697,1648 698,1648 699,1649 700,1649 701,1650 702,1650 703,1651 712,1651 713,1650 715,1650 718,1647 719,1647 719,1646 721,1644 721,1643 722,1642 722,1640 721,1640 720,1639 719,1639 717,1637 716,1637 716,1639 712,1643 710,1643 709,1644 707,1644 706,1643 704,1643 703,1642 702,1642 701,1641 700,1641 695,1636 695,1635 694,1634 694,1629 695,1628 695,1627 697,1625 697,1624 696,1624 694,1622 693,1622 Z" fill="blue" stroke="none" /><path d="M 1036,1610 1035,1611 1028,1611 1027,1612 1023,1612 1022,1613 1019,1613 1018,1614 1015,1614 1014,1615 1012,1615 1011,1616 1009,1616 1008,1617 1006,1617 1005,1618 1003,1618 1002,1619 1001,1619 1000,1620 999,1620 998,1621 997,1621 996,1622 995,1622 994,1623 993,1623 992,1624 991,1624 990,1625 989,1625 987,1627 986,1627 985,1628 984,1628 981,1631 980,1631 978,1633 977,1633 972,1638 971,1638 963,1646 963,1647 958,1652 958,1653 956,1655 956,1656 954,1658 954,1659 952,1661 952,1662 951,1663 951,1664 949,1666 949,1667 948,1668 948,1669 947,1670 947,1671 946,1672 946,1674 945,1675 945,1676 944,1677 944,1679 943,1680 943,1682 942,1683 942,1685 941,1686 941,1689 940,1690 940,1693 939,1694 939,1699 938,1700 938,1708 937,1709 937,1717 938,1718 938,1726 939,1727 939,1731 940,1732 940,1734 941,1735 941,1738 942,1739 942,1740 943,1741 943,1743 944,1744 944,1745 945,1746 945,1747 946,1748 946,1749 948,1751 948,1752 950,1754 950,1755 954,1759 954,1760 960,1766 961,1766 965,1770 966,1770 968,1772 969,1772 971,1774 972,1774 973,1775 974,1775 975,1776 976,1776 977,1777 978,1777 979,1778 981,1778 982,1779 983,1779 984,1780 986,1780 987,1781 990,1781 991,1782 994,1782 995,1783 999,1783 1000,1784 1007,1784 1008,1785 1020,1785 1021,1784 1028,1784 1029,1783 1034,1783 1035,1782 1039,1782 1040,1781 1043,1781 1044,1780 1046,1780 1047,1779 1050,1779 1051,1778 1053,1778 1053,1775 1054,1774 1054,1769 1055,1768 1055,1763 1056,1762 1056,1757 1057,1756 1057,1750 1058,1749 1058,1744 1059,1743 1059,1738 1060,1737 1060,1731 1061,1730 1061,1726 1054,1733 1053,1733 1051,1735 1050,1735 1048,1737 1047,1737 1046,1738 1045,1738 1044,1739 1043,1739 1042,1740 1041,1740 1040,1741 1038,1741 1037,1742 1035,1742 1034,1743 1029,1743 1028,1744 1017,1744 1016,1743 1011,1743 1010,1742 1007,1742 1006,1741 1004,1741 1003,1740 1002,1740 1001,1739 1000,1739 998,1737 997,1737 988,1728 988,1727 987,1726 987,1725 986,1724 986,1723 985,1722 985,1721 984,1720 984,1717 983,1716 983,1709 982,1708 982,1705 983,1704 983,1696 984,1695 984,1692 985,1691 985,1689 986,1688 986,1686 987,1685 987,1684 988,1683 988,1682 989,1681 989,1680 991,1678 991,1677 992,1676 992,1675 995,1672 995,1671 1003,1663 1004,1663 1007,1660 1008,1660 1009,1659 1010,1659 1012,1657 1013,1657 1014,1656 1015,1656 1016,1655 1018,1655 1019,1654 1021,1654 1022,1653 1024,1653 1025,1652 1033,1652 1034,1651 1038,1651 1039,1652 1045,1652 1046,1653 1049,1653 1050,1654 1052,1654 1053,1655 1054,1655 1055,1656 1056,1656 1057,1657 1058,1657 1060,1659 1061,1659 1068,1666 1068,1667 1070,1669 1070,1670 1070,1668 1071,1667 1071,1662 1072,1661 1072,1656 1073,1655 1073,1650 1074,1649 1074,1643 1075,1642 1075,1637 1076,1636 1076,1631 1077,1630 1077,1624 1078,1623 1078,1619 1077,1618 1076,1618 1075,1617 1074,1617 1073,1616 1072,1616 1071,1615 1069,1615 1068,1614 1066,1614 1065,1613 1063,1613 1062,1612 1059,1612 1058,1611 1053,1611 1052,1610 Z" fill="blue" stroke="none" /><path d="M 910,1602 909,1603 906,1603 905,1604 904,1604 903,1605 902,1605 901,1606 900,1606 894,1612 894,1613 892,1615 892,1616 891,1617 891,1619 890,1620 890,1622 889,1623 889,1633 890,1634 890,1635 891,1636 891,1637 892,1638 892,1639 895,1642 896,1642 898,1644 899,1644 900,1645 902,1645 903,1646 913,1646 914,1645 917,1645 918,1644 919,1644 921,1642 922,1642 928,1636 928,1635 930,1633 930,1632 931,1631 931,1629 932,1628 932,1627 933,1626 933,1622 934,1621 934,1618 933,1617 933,1614 932,1613 932,1612 931,1611 931,1610 926,1605 925,1605 924,1604 923,1604 922,1603 920,1603 919,1602 Z" fill="blue" stroke="none" /><path d="M 710,1598 709,1599 709,1600 702,1607 702,1608 701,1609 701,1610 704,1613 705,1613 711,1619 712,1619 719,1626 720,1626 727,1633 728,1633 733,1628 733,1627 738,1622 734,1618 732,1618 730,1620 730,1621 728,1623 726,1623 721,1618 721,1617 725,1613 725,1612 721,1608 720,1608 720,1609 716,1613 715,1613 712,1610 711,1610 710,1609 710,1608 715,1603 715,1602 712,1599 711,1599 Z" fill="blue" stroke="none" /><path d="M 732,1579 731,1580 730,1580 729,1581 728,1581 723,1586 722,1586 721,1587 725,1591 725,1592 730,1597 730,1598 735,1603 735,1604 740,1609 740,1610 745,1615 749,1611 750,1611 749,1610 749,1609 743,1603 743,1602 744,1601 745,1601 746,1602 747,1602 748,1603 749,1603 751,1605 752,1605 753,1606 756,1606 760,1602 759,1601 758,1601 757,1600 756,1600 755,1599 754,1599 753,1598 752,1598 751,1597 750,1597 749,1596 748,1596 747,1595 746,1595 744,1593 745,1592 745,1586 744,1585 744,1584 739,1579 Z" fill="blue" stroke="none" /><path d="M 952,1561 951,1562 949,1562 947,1564 946,1564 943,1567 943,1568 941,1570 941,1571 940,1572 940,1573 939,1574 939,1575 938,1576 938,1577 937,1578 937,1581 936,1582 936,1588 937,1589 937,1590 938,1591 938,1592 940,1594 941,1594 942,1595 943,1595 944,1596 951,1596 952,1595 953,1595 954,1594 955,1594 959,1590 959,1589 961,1587 961,1586 962,1585 962,1584 963,1583 963,1582 964,1581 964,1580 965,1579 965,1576 966,1575 966,1571 965,1570 965,1567 960,1562 959,1562 958,1561 Z" fill="blue" stroke="none" /><path d="M 762,1558 761,1559 760,1559 758,1561 757,1561 756,1562 755,1562 754,1563 753,1563 752,1564 751,1564 749,1566 748,1566 748,1568 749,1569 749,1570 750,1571 750,1572 751,1572 752,1571 753,1571 754,1570 755,1570 757,1572 757,1573 758,1574 758,1575 760,1577 760,1578 761,1579 761,1580 762,1581 762,1582 763,1583 763,1584 765,1586 765,1587 766,1588 766,1589 767,1590 767,1591 768,1592 768,1593 770,1595 770,1596 771,1595 772,1595 774,1593 775,1593 776,1592 775,1591 775,1590 774,1589 774,1588 773,1587 773,1586 771,1584 771,1583 770,1582 770,1581 769,1580 769,1579 768,1578 768,1577 766,1575 766,1574 765,1573 765,1572 764,1571 764,1570 763,1569 763,1568 762,1567 762,1566 763,1565 764,1565 766,1563 766,1562 765,1561 765,1560 763,1558 Z" fill="blue" stroke="none" /><path d="M 779,1550 778,1551 777,1551 776,1552 775,1552 774,1553 774,1554 775,1555 775,1556 776,1557 776,1558 777,1559 777,1561 778,1562 778,1563 779,1564 779,1565 780,1566 780,1567 781,1568 781,1570 782,1571 782,1572 783,1573 783,1574 784,1575 784,1576 785,1577 785,1579 786,1580 786,1581 787,1582 787,1583 788,1584 788,1585 789,1586 790,1585 792,1585 793,1584 794,1584 795,1583 794,1582 794,1580 793,1579 793,1578 792,1577 792,1576 791,1575 791,1574 790,1573 790,1571 789,1570 789,1569 788,1568 788,1567 787,1566 787,1565 786,1564 786,1562 785,1561 785,1560 784,1559 784,1558 783,1557 783,1556 782,1555 782,1553 781,1552 781,1551 780,1550 Z" fill="blue" stroke="none" /><path d="M 914,1543 913,1544 913,1546 912,1547 912,1549 911,1550 911,1552 910,1553 910,1555 909,1556 909,1558 908,1559 908,1561 907,1562 907,1564 906,1565 906,1567 905,1568 905,1570 904,1571 904,1573 903,1574 903,1576 902,1577 903,1578 905,1578 906,1579 908,1579 909,1580 912,1580 913,1581 915,1581 916,1580 920,1580 921,1579 922,1579 926,1575 926,1574 928,1572 928,1571 929,1570 929,1568 930,1567 930,1564 931,1563 931,1555 930,1554 930,1553 929,1552 929,1551 925,1547 924,1547 923,1546 922,1546 921,1545 919,1545 918,1544 916,1544 915,1543 Z" fill="blue" stroke="none" /><path d="M 810,1540 809,1541 806,1541 805,1542 803,1542 802,1543 799,1543 798,1544 796,1544 796,1547 797,1548 797,1550 798,1551 798,1554 799,1555 799,1558 800,1559 800,1562 801,1563 801,1565 802,1566 802,1569 803,1570 803,1573 804,1574 804,1577 805,1578 805,1579 808,1579 809,1578 811,1578 811,1574 810,1573 810,1571 809,1570 809,1567 808,1566 808,1563 809,1562 811,1562 812,1561 815,1561 815,1558 814,1557 814,1555 810,1555 809,1556 806,1556 805,1555 805,1552 804,1551 804,1549 805,1548 807,1548 808,1547 811,1547 812,1546 812,1544 811,1543 811,1541 Z" fill="blue" stroke="none" /><path d="M 886,1537 886,1538 885,1539 885,1540 884,1541 884,1543 883,1544 883,1545 882,1546 882,1547 881,1548 881,1550 880,1551 880,1552 879,1553 879,1554 878,1555 878,1557 877,1558 877,1559 876,1560 876,1561 875,1562 875,1564 874,1565 874,1566 873,1567 873,1568 872,1569 872,1571 875,1571 876,1572 878,1572 879,1571 879,1569 880,1568 880,1567 881,1566 883,1566 884,1567 887,1567 888,1568 888,1573 889,1574 892,1574 893,1575 895,1575 895,1561 894,1560 894,1539 893,1538 892,1538 891,1537 Z" fill="blue" stroke="none" /><path d="M 825,1537 825,1541 826,1542 826,1549 827,1550 827,1557 828,1558 828,1565 829,1566 829,1573 836,1573 836,1566 835,1565 835,1558 834,1557 834,1550 833,1549 833,1542 832,1541 832,1537 Z" fill="blue" stroke="none" /><path d="M 859,1534 858,1535 855,1535 854,1536 853,1536 848,1541 848,1542 847,1543 847,1545 846,1546 846,1550 845,1551 845,1555 846,1556 846,1560 847,1561 847,1562 848,1563 848,1564 849,1565 849,1566 852,1569 853,1569 854,1570 855,1570 856,1571 860,1571 861,1572 862,1571 865,1571 865,1564 863,1564 862,1565 861,1565 860,1564 858,1564 855,1561 855,1560 854,1559 854,1558 853,1557 853,1548 854,1547 854,1546 855,1545 855,1544 858,1541 865,1541 865,1535 864,1535 863,1534 Z" fill="blue" stroke="none" /><path d="M 736,845 735,846 735,847 734,848 734,849 733,850 733,851 731,853 731,854 730,855 730,856 729,857 729,858 727,860 727,861 726,862 726,863 725,864 725,865 724,866 724,867 722,869 722,870 721,871 721,872 720,873 720,874 718,876 718,877 717,878 717,879 716,880 716,881 714,883 714,884 713,885 713,886 712,887 712,888 711,889 711,890 709,892 709,893 708,894 708,895 707,896 707,897 705,899 705,900 704,901 704,902 703,903 703,904 701,906 701,907 700,908 700,909 699,910 699,911 697,913 697,914 696,915 696,916 695,917 695,918 694,919 694,920 692,922 692,923 691,924 691,925 690,926 690,927 688,929 688,930 687,931 687,932 686,933 686,934 684,936 684,937 683,938 683,939 682,940 682,941 681,942 681,943 679,945 679,946 678,947 678,948 677,949 677,950 675,952 675,953 674,954 674,955 673,956 661,956 660,957 657,957 656,958 654,958 653,959 652,959 651,960 650,960 649,961 648,961 646,963 645,963 640,968 640,969 638,971 638,972 637,973 637,974 636,975 636,976 635,977 635,980 634,981 634,993 635,994 635,997 636,998 636,999 637,1000 637,1001 638,1002 638,1003 639,1004 639,1005 641,1007 641,1008 642,1009 642,1011 641,1012 641,1013 640,1014 640,1015 639,1016 639,1017 637,1019 637,1020 636,1021 636,1022 635,1023 635,1024 634,1025 634,1026 632,1028 632,1029 631,1030 631,1031 630,1032 630,1033 628,1035 628,1036 627,1037 627,1038 626,1039 626,1040 624,1042 624,1043 623,1044 623,1045 622,1046 622,1047 621,1048 621,1049 619,1051 619,1052 618,1053 618,1054 617,1055 617,1056 615,1058 615,1059 614,1060 614,1061 613,1062 613,1063 611,1065 611,1066 610,1067 610,1068 609,1069 609,1070 607,1072 607,1073 606,1074 606,1075 605,1076 605,1077 604,1078 604,1079 602,1081 602,1082 601,1083 601,1084 600,1085 600,1086 598,1088 598,1089 597,1090 597,1091 596,1092 596,1093 594,1095 594,1096 593,1097 593,1098 592,1099 592,1100 591,1101 591,1102 589,1104 589,1105 588,1106 588,1107 587,1108 587,1109 585,1111 585,1112 584,1113 584,1114 583,1115 583,1116 581,1118 581,1119 580,1120 580,1121 579,1122 579,1123 577,1125 577,1126 576,1127 576,1128 575,1129 575,1130 574,1131 574,1132 572,1134 572,1135 571,1136 571,1137 570,1138 570,1139 568,1141 568,1142 567,1143 567,1144 566,1145 566,1146 564,1148 564,1149 563,1150 563,1151 562,1152 562,1153 561,1154 561,1155 559,1157 559,1158 558,1159 558,1160 557,1161 557,1162 555,1164 555,1165 554,1166 554,1167 553,1168 553,1169 551,1171 551,1172 550,1173 550,1174 549,1175 549,1176 547,1178 547,1179 546,1180 546,1181 545,1182 545,1183 544,1184 544,1185 542,1187 542,1188 541,1189 541,1190 540,1191 540,1192 538,1194 538,1195 537,1196 537,1197 536,1198 536,1199 534,1201 534,1202 533,1203 533,1204 532,1205 532,1206 531,1207 531,1208 529,1210 529,1211 528,1212 528,1213 527,1214 527,1215 525,1217 525,1218 524,1219 524,1220 523,1221 523,1222 521,1224 521,1225 520,1226 520,1227 521,1227 523,1229 524,1229 525,1230 526,1230 527,1231 528,1231 530,1233 531,1233 532,1234 533,1234 534,1235 535,1235 536,1236 537,1236 539,1238 540,1238 541,1239 542,1239 543,1240 544,1240 546,1242 547,1242 548,1243 549,1243 550,1244 551,1244 553,1246 554,1246 555,1247 556,1247 557,1248 558,1248 559,1249 560,1249 562,1251 563,1251 564,1252 565,1252 566,1253 567,1253 569,1255 570,1255 571,1256 572,1256 573,1257 574,1257 576,1259 577,1259 578,1260 579,1260 580,1261 581,1261 582,1262 583,1262 585,1264 586,1264 587,1265 588,1265 589,1266 590,1266 592,1268 593,1268 594,1269 595,1269 596,1270 597,1270 599,1272 600,1272 601,1273 602,1273 603,1274 604,1274 605,1275 606,1275 608,1277 609,1277 610,1278 611,1278 612,1279 613,1279 615,1281 616,1281 617,1282 618,1282 619,1283 620,1283 622,1285 623,1285 624,1286 625,1286 626,1287 627,1287 628,1288 629,1288 631,1290 632,1290 633,1291 634,1291 635,1292 636,1292 638,1294 639,1294 640,1295 641,1295 642,1296 643,1296 645,1298 646,1298 647,1299 648,1299 649,1300 650,1300 651,1301 652,1301 654,1303 655,1303 656,1304 657,1304 658,1305 659,1305 661,1307 662,1307 663,1308 664,1308 665,1309 666,1309 668,1311 669,1311 670,1312 671,1312 672,1313 673,1313 674,1314 675,1314 677,1316 678,1316 679,1317 680,1317 681,1318 682,1318 684,1320 685,1320 686,1321 687,1321 688,1322 689,1322 691,1324 692,1324 693,1325 694,1325 695,1326 696,1326 697,1327 698,1327 700,1329 701,1329 702,1330 703,1330 704,1331 705,1331 707,1333 708,1333 709,1334 710,1334 711,1335 712,1335 714,1337 715,1337 716,1338 717,1338 718,1339 719,1339 720,1340 721,1340 723,1342 933,1342 934,1341 934,1340 935,1339 935,1338 936,1337 936,1336 938,1334 938,1333 939,1332 939,1331 940,1330 940,1329 942,1327 942,1326 943,1325 943,1324 944,1323 944,1322 946,1320 946,1319 947,1318 947,1317 948,1316 948,1315 949,1314 949,1313 951,1311 951,1310 952,1309 952,1308 953,1307 953,1306 955,1304 955,1303 956,1302 956,1301 957,1300 957,1299 959,1297 959,1296 960,1295 960,1294 961,1293 961,1292 962,1291 962,1290 964,1288 964,1287 965,1286 965,1285 966,1284 966,1283 968,1281 968,1280 969,1279 969,1278 970,1277 970,1276 972,1274 972,1273 973,1272 973,1271 974,1270 974,1269 976,1267 976,1266 977,1265 977,1264 978,1263 978,1262 979,1261 979,1260 981,1258 981,1257 982,1256 982,1255 983,1254 983,1253 985,1251 985,1250 986,1249 986,1248 987,1247 987,1246 989,1244 989,1243 990,1242 990,1241 991,1240 991,1239 992,1238 992,1237 994,1235 994,1234 995,1233 995,1232 996,1231 996,1230 998,1228 998,1227 999,1226 999,1225 1000,1224 1000,1223 1002,1221 1002,1220 1003,1219 1003,1218 1004,1217 1004,1216 1006,1214 1006,1213 1007,1212 1007,1211 1008,1210 1008,1209 1009,1208 1009,1207 1011,1205 1011,1204 1012,1203 1012,1202 1013,1201 1013,1200 1015,1198 1015,1197 1016,1196 1016,1195 1017,1194 1017,1193 1019,1191 1019,1190 1020,1189 1020,1188 1021,1187 1021,1186 1023,1184 1023,1183 1024,1182 1024,1181 1025,1180 1025,1179 1026,1178 1026,1177 1028,1175 1028,1174 1029,1173 1029,1172 1030,1171 1030,1170 1032,1168 1032,1167 1033,1166 1033,1165 1034,1164 1035,1164 1037,1162 1038,1162 1041,1159 1042,1159 1054,1147 1054,1146 1057,1143 1057,1142 1058,1141 1058,1140 1060,1138 1060,1137 1061,1136 1061,1135 1062,1134 1062,1132 1063,1131 1063,1130 1064,1129 1064,1127 1065,1126 1065,1123 1066,1122 1066,1120 1067,1119 1067,1116 1068,1115 1068,1112 1069,1111 1069,1108 1070,1107 1070,1105 1071,1104 1071,1101 1072,1100 1072,1097 1073,1096 1073,1094 1075,1092 1075,1091 1076,1090 1076,1089 1077,1088 1077,1087 1079,1085 1079,1084 1080,1083 1080,1082 1081,1081 1081,1080 1083,1078 1083,1077 1084,1076 1084,1075 1085,1074 1085,1073 1086,1072 1086,1071 1088,1069 1088,1068 1089,1067 1089,1066 1090,1065 1090,1064 1092,1062 1092,1061 1093,1060 1093,1059 1094,1058 1094,1057 1096,1055 1096,1054 1097,1053 1097,1052 1098,1051 1098,1050 1099,1049 1099,1048 1101,1046 1101,1045 1102,1044 1102,1043 1103,1042 1103,1041 1105,1039 1105,1038 1106,1037 1106,1036 1107,1035 1107,1034 1109,1032 1109,1031 1110,1030 1110,1029 1111,1028 1111,1027 1113,1025 1113,1024 1114,1023 1114,1022 1115,1021 1115,1020 1116,1019 1116,1018 1118,1016 1118,1015 1119,1014 1119,1013 1120,1012 1120,1011 1122,1009 1122,1008 1123,1007 1123,1006 1124,1005 1124,1004 1126,1002 1126,1001 1127,1000 1127,999 1128,998 1128,997 1129,996 1129,995 1131,993 1131,992 1132,991 1132,990 1133,989 1133,988 1135,986 1135,985 1136,984 1136,983 1137,982 1137,981 1139,979 1139,978 1140,977 1140,976 1141,975 1141,974 1143,972 1143,971 1144,970 1144,969 1145,968 1145,967 1146,966 1146,965 1148,963 1148,962 1149,961 1149,960 1150,959 1150,958 1152,956 1152,955 1153,954 1153,953 1154,952 1154,951 1156,949 1156,948 1157,947 1157,946 1158,945 1158,944 1160,942 1160,941 1161,940 1161,939 1162,938 1162,937 1163,936 1163,935 1165,933 1165,932 1166,931 1166,930 1167,929 1167,928 1169,926 1169,925 1170,924 1170,923 1171,922 1171,921 1173,919 1173,918 1174,917 1174,916 1175,915 1175,914 1176,913 1176,912 1178,910 1178,909 1179,908 1179,907 1180,906 1180,905 1182,903 1182,902 1183,901 1183,900 1184,899 1184,898 1186,896 1186,895 1187,894 1187,893 1188,892 1188,891 1190,889 1190,888 1191,887 1191,886 1192,885 1192,884 1193,883 1193,882 1195,880 1195,879 1196,878 1196,877 1197,876 1197,875 1199,873 1199,872 1200,871 1200,870 1201,869 1201,868 1203,866 1203,865 1204,864 1204,863 1205,862 1205,861 1206,860 1206,859 1208,857 1208,856 1209,855 1209,854 1210,853 1210,852 1212,850 1212,849 1213,848 1213,847 1214,846 1214,845 Z" fill="blue" stroke="none" /><path d="M 1669,98 1735,98 Z" fill="blue" stroke="none" /><path d="M 0,98 66,98 Z" fill="blue" stroke="none" /><path d="M 1636,0 1636,64 Z" fill="blue" stroke="none" /><path d="M 100,0 100,64 Z" fill="blue" stroke="none" /></svg>